<?xml version="1.0" encoding="UTF-8"?>
<svg width="123px" height="42px" viewBox="0 0 123 42" version="1.1" xmlns="http://www.w3.org/2000/svg" xmlns:xlink="http://www.w3.org/1999/xlink">
    <defs>
        <rect id="path-1" x="0" y="0" width="122.684211" height="42" rx="6"></rect>
    </defs>
    <g id="Zipy-Demo-App" stroke="none" stroke-width="1" fill="none" fill-rule="evenodd">
        <g id="ZipyDemo_Web-Ecom-1" transform="translate(-1018.000000, -1898.000000)">
            <g id="app" transform="translate(165.000000, 1898.000000)">
                <g id="Group" transform="translate(853.000000, 0.000000)">
                    <mask id="mask-2" fill="white">
                        <use xlink:href="#path-1"></use>
                    </mask>
                    <use id="◼️-Background" fill="#1C1C1C" xlink:href="#path-1"></use>
                    <path d="M52.8273112,22.2595832 C55.0384555,22.2595832 56.4959888,24.0046283 56.4959888,26.7717712 C56.4959888,29.5389142 55.0467369,31.292269 52.860437,31.292269 C51.6099397,31.292269 50.616167,30.6773484 50.1192806,29.7051089 L50.0778734,29.7051089 L50.0778734,34.0344828 L48.2890826,34.0344828 L48.2890826,22.4008487 L50.0199033,22.4008487 L50.0199033,23.9049114 L50.0530291,23.9049114 C50.5664783,22.899433 51.5685325,22.2595832 52.8273112,22.2595832 Z M62.8127551,22.2595832 C65.0238994,22.2595832 66.4814327,24.0046283 66.4814327,26.7717712 C66.4814327,29.5389142 65.0321808,31.292269 62.8458809,31.292269 C61.5953835,31.292269 60.6016108,30.6773484 60.1047245,29.7051089 L60.0633173,29.7051089 L60.0633173,34.0344828 L58.2745264,34.0344828 L58.2745264,22.4008487 L60.0053472,22.4008487 L60.0053472,23.9049114 L60.038473,23.9049114 C60.5519222,22.899433 61.5539763,22.2595832 62.8127551,22.2595832 Z M24.3681083,14.2248872 L24.645908,14.2427798 C25.3835044,14.2643628 27.4824723,14.5350495 28.8366741,16.5161886 C28.7273342,16.5818369 26.3361956,17.9919258 26.3621863,20.8903421 C26.392658,24.364305 29.3914397,25.5127001 29.4272889,25.5243909 C29.4093643,25.6053272 28.957665,27.1835836 27.8328978,28.7825238 C26.89365,30.1926128 25.9095907,31.5712266 24.3465676,31.5946082 C22.8283559,31.6305798 22.3175055,30.6989139 20.5761329,30.6989139 C18.8186281,30.6989139 18.2746172,31.5712266 16.8182454,31.6305798 C15.3296093,31.6854366 14.1922949,30.1269645 13.2189903,28.7294656 C11.2732775,25.8778125 9.7586508,20.6933973 11.7895053,17.165477 C12.7735646,15.4352403 14.5678147,14.3210182 16.4857445,14.2913416 C17.976173,14.2607656 19.3590541,15.3012458 20.275,15.3012458 C21.1730213,15.3012458 22.8830259,14.0566265 24.645908,14.2427798 Z M76.4483419,18.9523072 C78.9741808,18.9523072 80.7050016,20.3732725 80.7629717,22.4423974 L78.957618,22.4423974 C78.8499593,21.2457951 77.864468,20.5228478 76.4234976,20.5228478 C74.9825272,20.5228478 73.9970359,21.2541048 73.9970359,22.3177513 C73.9970359,23.1653447 74.6264253,23.663929 76.166773,24.046177 L77.4835218,24.3702568 C79.9348278,24.9519385 80.9534448,25.9407974 80.9534448,27.6941522 C80.9534448,29.9377816 79.1729354,31.3421275 76.3406832,31.3421275 C73.6906226,31.3421275 71.9018318,29.9710206 71.7858916,27.8021788 L73.6160897,27.8021788 C73.7485927,28.9904714 74.8997128,29.7715869 76.4731862,29.7715869 C77.9804081,29.7715869 79.0652767,28.9904714 79.0652767,27.9185151 C79.0652767,26.9878244 78.411043,26.4310719 76.8624139,26.048824 L75.3137847,25.6748857 C73.1192033,25.1430625 72.1005863,24.1126549 72.1005863,22.4423974 C72.1005863,20.3732725 73.8976586,18.9523072 76.4483419,18.9523072 Z M107.719451,22.2429637 C110.137631,22.2429637 111.644853,23.9547698 111.644853,26.6055764 L111.644853,27.2204971 L105.491743,27.2204971 L105.491743,27.3285237 C105.491743,28.8492059 106.402702,29.8546842 107.835391,29.8546842 C108.854008,29.8546842 109.607619,29.3394804 109.84778,28.5749845 L111.545475,28.5749845 C111.297032,30.1704543 109.78981,31.3088885 107.793984,31.3088885 C105.235019,31.3088885 103.68639,29.5721531 103.68639,26.8133199 C103.68639,24.0711062 105.259863,22.2429637 107.719451,22.2429637 Z M92.1874142,22.2429637 C94.671846,22.2429637 96.3198524,23.9630796 96.3198524,26.7717712 C96.3198524,29.5887726 94.6801274,31.3088885 92.1874142,31.3088885 C89.694701,31.3088885 88.0549761,29.5887726 88.0549761,26.7717712 C88.0549761,23.9630796 89.7029825,22.2429637 92.1874142,22.2429637 Z M85.1253184,20.3317238 L85.1253184,22.4008487 L86.7816062,22.4008487 L86.7816062,23.821814 L85.1253184,23.821814 L85.1253184,28.6414624 C85.1253184,29.3976486 85.4565759,29.7383479 86.1853426,29.7383479 C86.3675343,29.7383479 86.6573846,29.7217284 86.7733248,29.6967992 L86.7733248,31.1177645 C86.5745702,31.1676229 86.1770612,31.2008619 85.7795521,31.2008619 C84.0156055,31.2008619 83.3282461,30.5277731 83.3282461,28.8408961 L83.3282461,23.821814 L82.0611859,23.821814 L82.0611859,22.4008487 L83.3282461,22.4008487 L83.3282461,20.3317238 L85.1253184,20.3317238 Z M42.4692026,19.1517409 L46.7838324,31.1426937 L44.8211313,31.1426937 L43.7279813,27.9018957 L39.1731898,27.9018957 L38.0800398,31.1426937 L36.1504645,31.1426937 L40.4650943,19.1517409 L42.4692026,19.1517409 Z M101.949259,22.2595832 C102.205984,22.2595832 102.429583,22.3011319 102.562086,22.3260611 L102.562086,23.9963185 C102.421301,23.9381504 102.106607,23.8966017 101.758786,23.8966017 C100.607666,23.8966017 99.8954623,24.6694074 99.8954623,25.9075584 L99.8954623,31.1426937 L98.1066715,31.1426937 L98.1066715,22.4008487 L99.8126479,22.4008487 L99.8126479,23.8882919 L99.8540551,23.8882919 C100.143906,22.8661941 100.922361,22.2595832 101.949259,22.2595832 Z M92.1874142,23.7220972 C90.787851,23.7220972 89.8768927,24.8356021 89.8768927,26.7717712 C89.8768927,28.7162501 90.787851,29.829755 92.1874142,29.829755 C93.5952589,29.829755 94.4979358,28.7162501 94.4979358,26.7717712 C94.4979358,24.8356021 93.5869775,23.7220972 92.1874142,23.7220972 Z M52.3552692,23.7719556 C50.9888317,23.7719556 50.069592,24.9685579 50.069592,26.7717712 C50.069592,28.591604 50.9805503,29.7715869 52.3552692,29.7715869 C53.7713953,29.7715869 54.6575093,28.6082235 54.6575093,26.7717712 C54.6575093,24.9436287 53.7713953,23.7719556 52.3552692,23.7719556 Z M62.3407131,23.7719556 C60.9742756,23.7719556 60.0550359,24.9685579 60.0550359,26.7717712 C60.0550359,28.591604 60.9659942,29.7715869 62.3407131,29.7715869 C63.7568392,29.7715869 64.6429532,28.6082235 64.6429532,26.7717712 C64.6429532,24.9436287 63.7568392,23.7719556 62.3407131,23.7719556 Z M41.4754299,21.1460782 L41.4257412,21.1460782 L39.6452318,26.4061427 L43.2559393,26.4061427 L41.4754299,21.1460782 Z M107.719451,23.6888582 C106.468953,23.6888582 105.591121,24.6444781 105.500025,25.9657266 L109.856062,25.9657266 C109.814655,24.6278587 108.969948,23.6888582 107.719451,23.6888582 Z M45.5856002,11.1399658 C46.8305765,11.1399658 47.6721285,12.0366262 47.6721285,13.4817293 C47.6721285,14.9224797 46.8305765,15.8234928 45.5856002,15.8234928 C44.3362859,15.8234928 43.4947339,14.9224797 43.4947339,13.4817293 C43.4947339,12.0366262 44.3362859,11.1399658 45.5856002,11.1399658 Z M76.1313337,9.46416852 L76.1313337,15.7451438 L75.4112428,15.7451438 L75.4112428,14.979065 L75.3982292,14.979065 C75.1075901,15.5013915 74.5913804,15.8234928 73.9406959,15.8234928 C72.7911532,15.8234928 72.0103318,14.9007161 72.0103318,13.4817293 C72.0103318,12.0627425 72.7868153,11.1399658 73.9233443,11.1399658 C74.5696909,11.1399658 75.0902385,11.4577144 75.3591881,11.9539245 L75.3765397,11.9539245 L75.3765397,9.46416852 L76.1313337,9.46416852 Z M81.434557,11.1399658 C82.6795334,11.1399658 83.5210854,12.0366262 83.5210854,13.4817293 C83.5210854,14.9224797 82.6795334,15.8234928 81.434557,15.8234928 C80.1852428,15.8234928 79.3436908,14.9224797 79.3436908,13.4817293 C79.3436908,12.0366262 80.1852428,11.1399658 81.434557,11.1399658 Z M64.334279,11.1399658 C65.5792553,11.1399658 66.4208073,12.0366262 66.4208073,13.4817293 C66.4208073,14.9224797 65.5792553,15.8234928 64.334279,15.8234928 C63.0849647,15.8234928 62.2434128,14.9224797 62.2434128,13.4817293 C62.2434128,12.0366262 63.0849647,11.1399658 64.334279,11.1399658 Z M101.55083,11.1399658 C102.769779,11.1399658 103.520235,12.0279207 103.520235,13.3990276 L103.520235,13.6863071 L100.284164,13.6863071 L100.284164,13.7298343 C100.284164,14.5960257 100.791698,15.166232 101.602885,15.166232 C102.175487,15.166232 102.596263,14.8745998 102.722062,14.4480332 L103.463843,14.4480332 C103.333706,15.2402283 102.570236,15.8234928 101.585533,15.8234928 C100.29284,15.8234928 99.5076808,14.9224797 99.5076808,13.4991402 C99.5076808,12.0932115 100.305854,11.1399658 101.55083,11.1399658 Z M69.2502727,11.1399658 C70.3087195,11.1399658 70.9767556,11.7145249 70.9767556,12.615538 L70.9767556,15.7451438 L70.2610027,15.7451438 L70.2610027,14.9660069 L70.2436511,14.9660069 C69.9747015,15.4839806 69.4020991,15.8234928 68.7947936,15.8234928 C67.896849,15.8234928 67.2938813,15.2794027 67.2938813,14.4654441 C67.2938813,13.6906599 67.8881732,13.2031552 68.9292684,13.1422171 L70.2219616,13.0682209 L70.2219616,12.6895342 C70.2219616,12.1367387 69.8575783,11.805932 69.2329211,11.805932 C68.651643,11.805932 68.2872597,12.0801534 68.1918259,12.5241308 L67.4630593,12.5241308 C67.5151141,11.7406412 68.1831501,11.1399658 69.2502727,11.1399658 Z M92.668842,10.125782 L92.668842,11.2183148 L93.5450971,11.2183148 L93.5450971,11.8407538 L92.668842,11.8407538 L92.668842,14.5307349 C92.668842,14.9442433 92.8423578,15.1314103 93.2284306,15.1314103 C93.3151886,15.1314103 93.4887045,15.1183521 93.5407592,15.1096466 L93.5407592,15.7451438 C93.4496634,15.7669074 93.2414443,15.7799656 93.0635906,15.7799656 C92.2350523,15.7799656 91.9140479,15.4404534 91.9140479,14.5699093 L91.9140479,11.8407538 L91.241674,11.8407538 L91.241674,11.2183148 L91.9140479,11.2183148 L91.9140479,10.125782 L92.668842,10.125782 Z M61.149106,9.46416852 L61.149106,15.7451438 L60.394312,15.7451438 L60.394312,9.46416852 L61.149106,9.46416852 Z M57.5388192,11.1399658 C58.5278596,11.1399658 59.100462,11.7798157 59.100462,12.8070577 L59.100462,15.7451438 L58.345668,15.7451438 L58.345668,12.941992 C58.345668,12.210735 58.0029741,11.8102847 57.3089106,11.8102847 C56.5974956,11.8102847 56.1333406,12.3152003 56.1333406,13.081279 L56.1333406,15.7451438 L55.3785466,15.7451438 L55.3785466,11.2183148 L56.0899617,11.2183148 L56.0899617,11.9408663 L56.1073133,11.9408663 C56.3589113,11.4533617 56.8404178,11.1399658 57.5388192,11.1399658 Z M86.7366236,11.1399658 C87.7256641,11.1399658 88.2982664,11.7798157 88.2982664,12.8070577 L88.2982664,15.7451438 L87.5434724,15.7451438 L87.5434724,12.941992 C87.5434724,12.210735 87.2007786,11.8102847 86.5067151,11.8102847 C85.7953,11.8102847 85.3311451,12.3152003 85.3311451,13.081279 L85.3311451,15.7451438 L84.576351,15.7451438 L84.576351,11.2183148 L85.2877661,11.2183148 L85.2877661,11.9408663 L85.3051177,11.9408663 C85.5567157,11.4533617 86.0382222,11.1399658 86.7366236,11.1399658 Z M49.1091291,11.2183148 L50.0114116,14.9007161 L50.0287632,14.9007161 L51.0481689,11.2183148 L51.7769356,11.2183148 L52.8006792,14.9007161 L52.8180308,14.9007161 L53.7203133,11.2183148 L54.4664315,11.2183148 L53.2084415,15.7451438 L52.4406338,15.7451438 L51.421228,12.241204 L51.4038764,12.241204 L50.3888086,15.7451438 L49.6210009,15.7451438 L48.3586729,11.2183148 L49.1091291,11.2183148 Z M95.4375769,9.46416852 L95.4375769,11.9408663 L95.4549284,11.9408663 C95.7065265,11.4359508 96.2010467,11.1399658 96.8864344,11.1399658 C97.8754748,11.1399658 98.4741046,11.8102847 98.4741046,12.8201158 L98.4741046,15.7451438 L97.7193105,15.7451438 L97.7193105,12.9594029 C97.7193105,12.241204 97.3592651,11.8102847 96.6521879,11.8102847 C95.9017318,11.8102847 95.4375769,12.3239057 95.4375769,13.1073953 L95.4375769,15.7451438 L94.6827828,15.7451438 L94.6827828,9.46416852 L95.4375769,9.46416852 Z M39.6154975,9.46416852 C41.4721173,9.46416852 42.5696052,10.6263448 42.5696052,12.6024798 C42.5696052,14.5829675 41.4764552,15.7451438 39.6154975,15.7451438 L37.5116176,15.7451438 L37.5116176,9.46416852 L39.6154975,9.46416852 Z M70.2219616,13.6558381 L69.0160263,13.7298343 C68.4087208,13.7690088 68.061689,14.0388775 68.061689,14.4654441 C68.061689,14.8963634 68.4217345,15.1792902 68.9639716,15.1792902 C69.6753866,15.1792902 70.2219616,14.6787273 70.2219616,14.0258193 L70.2219616,13.6558381 Z M45.5856002,11.805932 C44.7874272,11.805932 44.2625417,12.4153128 44.2625417,13.4817293 C44.2625417,14.5481457 44.7874272,15.1575266 45.5856002,15.1575266 C46.3837732,15.1575266 46.9043208,14.5481457 46.9043208,13.4817293 C46.9043208,12.4153128 46.3837732,11.805932 45.5856002,11.805932 Z M74.0838465,11.805932 C73.2856735,11.805932 72.7824774,12.45884 72.7824774,13.4817293 C72.7824774,14.5089713 73.2856735,15.1575266 74.0838465,15.1575266 C74.86033,15.1575266 75.3808776,14.4959131 75.3808776,13.4817293 C75.3808776,12.4718982 74.86033,11.805932 74.0838465,11.805932 Z M81.434557,11.805932 C80.636384,11.805932 80.1114985,12.4153128 80.1114985,13.4817293 C80.1114985,14.5481457 80.636384,15.1575266 81.434557,15.1575266 C82.23273,15.1575266 82.7532776,14.5481457 82.7532776,13.4817293 C82.7532776,12.4153128 82.23273,11.805932 81.434557,11.805932 Z M64.334279,11.805932 C63.536106,11.805932 63.0112205,12.4153128 63.0112205,13.4817293 C63.0112205,14.5481457 63.536106,15.1575266 64.334279,15.1575266 C65.132452,15.1575266 65.6529996,14.5481457 65.6529996,13.4817293 C65.6529996,12.4153128 65.132452,11.805932 64.334279,11.805932 Z M39.5634427,10.1693092 L38.292439,10.1693092 L38.292439,15.0400031 L39.5634427,15.0400031 C40.981935,15.0400031 41.7714322,14.1694591 41.7714322,12.6111852 C41.7714322,11.0398532 40.9862729,10.1693092 39.5634427,10.1693092 Z M24.6647288,8.68965517 C24.8135028,10.046686 24.277558,11.3839323 23.494254,12.3668579 C22.6768933,13.3344955 21.3692954,14.0746123 20.0957542,13.9792874 C19.9290557,12.6735163 20.5743404,11.2850103 21.2967009,10.4378777 C22.1131653,9.47653518 23.5309994,8.74001549 24.6647288,8.68965517 Z M101.537816,11.7972266 C100.830739,11.7972266 100.336219,12.3413166 100.288502,13.0943372 L102.739414,13.0943372 C102.722062,12.3369639 102.249231,11.7972266 101.537816,11.7972266 Z" id="Logo" fill="#FFFFFF" mask="url(#mask-2)"></path>
                </g>
            </g>
        </g>
    </g>
</svg>