<?xml version="1.0" encoding="UTF-8"?>
<svg width="116px" height="36px" viewBox="0 0 116 36" version="1.1" xmlns="http://www.w3.org/2000/svg" xmlns:xlink="http://www.w3.org/1999/xlink">
    <g id="Zipy-Demo-App" stroke="none" stroke-width="1" fill="none" fill-rule="evenodd">
        <g id="ZipyDemo_Web-Ecom-1" transform="translate(-174.000000, -1742.000000)" fill="#969696">
            <g id="brands" transform="translate(0.000000, 1626.000000)">
                <g id="Logo-/-Brands-/-#1" transform="translate(174.000000, 116.000000)">
                    <path d="M57.5536506,2.38167277 L53.3696025,2.38167277 L53.3696025,7.53525529 L51.1152161,7.53525529 L51.1152161,11.254042 L53.3696025,11.254042 L53.3696025,24.2709406 L57.5536506,24.2709406 L57.5536506,11.254042 L59.8421323,11.254042 L59.8421323,7.53525529 L57.5536506,7.53525529 L57.5536506,2.38167277 Z M47.1937673,0 C45.6570209,0 44.447622,1.20719852 44.447622,2.77321873 C44.447622,4.30586017 45.6570209,5.51371318 47.1937673,5.51371318 C48.7947701,5.51371318 50.0048247,4.30586017 50.0048247,2.77321873 C50.0048247,1.20719852 48.7947701,0 47.1937673,0 L47.1937673,0 Z M113.70169,7.14501831 C112.98405,7.14501831 112.427379,6.59017822 112.427379,5.87188037 C112.427379,5.18679766 112.98405,4.63195757 113.70169,4.63195757 C114.389169,4.63195757 114.943709,5.18679766 114.943709,5.87188037 C114.943709,6.59017822 114.389169,7.14501831 113.70169,7.14501831 L113.70169,7.14501831 Z M113.70169,4.43724813 C112.885699,4.43724813 112.232315,5.08944294 112.232315,5.87188037 C112.232315,6.68753294 112.885699,7.34038223 113.70169,7.34038223 C114.486701,7.34038223 115.140741,6.68753294 115.140741,5.87188037 C115.140741,5.08944294 114.486701,4.43724813 113.70169,4.43724813 L113.70169,4.43724813 Z M64.7103808,14.1586487 C65.2662322,11.9404336 66.9660785,10.7005108 69.1557167,10.7005108 C71.3460105,10.7005108 72.9789777,11.9070549 73.5027008,14.1586487 L64.7103808,14.1586487 Z M69.2530849,7.01363034 C64.2212447,7.01363034 60.3966723,10.8639686 60.3966723,15.9854813 C60.3966723,21.0415455 63.8945529,24.7606594 69.3188167,24.7606594 C72.3255941,24.7606594 75.0061715,23.651961 76.9671418,21.5631705 L74.1562483,18.7912607 C72.7832577,20.0964684 71.3125709,21.0415455 69.4168406,21.0415455 C67.1298342,21.0415455 65.3972039,19.7363378 64.8092243,17.5515015 L77.8485376,17.5515015 L77.8485376,16.5403214 C77.8485376,10.8305898 74.320004,7.01363034 69.2530849,7.01363034 L69.2530849,7.01363034 Z M106.282197,7.01363034 C104.223531,7.01363034 102.4591,7.79590415 101.216917,9.13449064 L101.216917,0.457485371 L97.0328692,0.457485371 L97.0328692,24.2709406 L101.216917,24.2709406 L101.216917,15.1696651 C101.216917,12.7560862 102.753664,11.0914023 105.301958,11.0914023 C107.688136,11.0914023 108.995722,12.5592497 108.995722,15.1696651 L108.995722,24.2709406 L113.179115,24.2709406 L113.179115,14.4194611 C113.179115,9.78750355 110.269214,7.01363034 106.282197,7.01363034 L106.282197,7.01363034 Z M113.374671,5.83981058 L113.374671,5.31687666 L113.70169,5.31687666 C113.964126,5.31687666 114.062478,5.41570397 114.062478,5.57899811 C114.062478,5.74180138 113.964126,5.83981058 113.70169,5.83981058 L113.374671,5.83981058 Z M114.257378,5.57899811 C114.257378,5.2529007 114.028382,5.12151273 113.70169,5.12151273 L113.179115,5.12151273 L113.179115,6.62208439 L113.374671,6.62208439 L113.374671,6.03517451 L113.70169,6.03517451 L114.062478,6.62208439 L114.289506,6.62208439 L113.898722,6.00326834 C114.127881,5.96923509 114.257378,5.83981058 114.257378,5.57899811 L114.257378,5.57899811 Z M88.2416966,11.0593325 C90.0064551,11.0593325 91.4450136,11.9723398 92.5562246,13.2456414 L95.4646503,10.3744134 C93.8310274,8.31883807 91.248474,7.01363034 88.308084,7.01363034 C83.2426402,7.01363034 79.2543121,10.8639686 79.2543121,15.886654 C79.2543121,20.910812 83.2426402,24.7606594 88.308084,24.7606594 C91.248474,24.7606594 93.8310274,23.4551245 95.4646503,21.4016762 L92.5562246,18.5304482 C91.4776336,19.7698802 90.0064551,20.7154481 88.2097322,20.7154481 C85.5289909,20.7154481 83.4698328,18.6279666 83.4698328,15.886654 C83.4698328,13.1461596 85.5289909,11.0593325 88.2416966,11.0593325 L88.2416966,11.0593325 Z M45.1344452,24.2709406 L49.3186572,24.2709406 L49.3186572,7.53525529 L45.1344452,7.53525529 L45.1344452,24.2709406 Z M14.8706232,20.7154481 C12.1900458,20.7154481 10.0651559,18.5958968 10.0651559,15.8547478 C10.0651559,13.1461596 12.1900458,11.0593325 14.8706232,11.0593325 C17.582837,11.0593325 19.707563,13.1461596 19.707563,15.886654 C19.707563,18.6279666 17.582837,20.7154481 14.8706232,20.7154481 L14.8706232,20.7154481 Z M14.8706232,7.01363034 C9.80403191,7.01363034 5.81701522,10.8639686 5.81701522,15.886654 C5.81701522,20.910812 9.80403191,24.7606594 14.8706232,24.7606594 C19.936067,24.7606594 23.9229197,20.910812 23.9229197,15.886654 C23.9229197,10.8639686 19.936067,7.01363034 14.8706232,7.01363034 L14.8706232,7.01363034 Z M0,24.2709406 L4.18404806,24.2709406 L4.18404806,0.457485371 L0,0.457485371 L0,24.2709406 Z M34.4144305,20.7154481 C31.7351645,20.7154481 29.6104385,18.5958968 29.6104385,15.8547478 C29.6104385,13.1461596 31.7351645,11.0593325 34.4144305,11.0593325 C37.1273,11.0593325 39.252026,13.1461596 39.252026,15.886654 C39.252026,18.6279666 37.1273,20.7154481 34.4144305,20.7154481 L34.4144305,20.7154481 Z M43.3044467,10.8639686 L43.3044467,7.53525529 L37.4205522,7.53525529 C36.4737526,7.21046686 35.4608933,7.01363034 34.4144305,7.01363034 C29.3491506,7.01363034 25.3622978,10.8639686 25.3622978,15.886654 C25.3622978,20.910812 29.3491506,24.7606594 34.4144305,24.7606594 C39.4798743,24.7606594 43.4682023,20.910812 43.4682023,15.886654 C43.4682023,14.1905548 43.0097192,12.5273435 42.0950478,11.2874207 L43.3044467,10.8639686 Z M34.4144305,30.2085968 C31.7351645,30.2085968 29.6104385,28.1212789 29.6104385,25.4135087 L25.3622978,25.4135087 C25.3622978,30.4375031 29.3491506,34.2857143 34.4144305,34.2857143 C39.4798743,34.2857143 43.4682023,30.4375031 43.4682023,25.4135087 L39.2185864,25.4135087 C39.2185864,28.1212789 37.0936965,30.2085968 34.4144305,30.2085968 L34.4144305,30.2085968 Z" id="Logitech"></path>
                </g>
            </g>
        </g>
    </g>
</svg>