<?xml version="1.0" encoding="UTF-8"?>
<svg width="147px" height="36px" viewBox="0 0 147 36" version="1.1" xmlns="http://www.w3.org/2000/svg" xmlns:xlink="http://www.w3.org/1999/xlink">
    <g id="Zipy-Demo-App" stroke="none" stroke-width="1" fill="none" fill-rule="evenodd">
        <g id="ZipyDemo_Web-Ecom-1" transform="translate(-750.000000, -1742.000000)" fill="#969696">
            <g id="brands" transform="translate(0.000000, 1626.000000)">
                <g id="Logo-/-Brands-/-#1-Copy-3" transform="translate(750.000000, 116.000000)">
                    <path d="M14.2079399,25.5607473 C21.3353454,29.7669364 30.1494374,32.3000203 39.2531252,32.3000203 C45.3942308,32.3000203 52.1449943,31.0075058 58.3564065,28.3359018 C59.2931569,27.932564 60.078581,28.9619582 59.1615833,29.6481079 C53.6210961,33.7945432 45.5880759,36 38.6712551,36 C28.9766579,36 20.2472686,32.3662247 13.640466,26.3164965 C13.1218719,25.8418616 13.5845556,25.1927185 14.2079399,25.5607473 Z M63.8316091,25.1482427 C64.4405974,25.9114611 63.6725825,31.1952548 60.6999566,33.7167954 C60.2426295,34.1048553 59.8080684,33.8980938 60.0106181,33.3854337 C60.6791994,31.6916184 62.1767279,27.8996315 61.4676366,26.97922 C60.7585453,26.0588085 56.7825452,26.5429497 54.99676,26.759557 C54.4557347,26.825422 54.3717017,26.3463734 54.8594949,25.9990547 C58.0309878,23.7399553 63.2276428,24.3924935 63.8316091,25.1482427 Z M55.1226421,10.0403884 L55.1226421,7.84545639 C55.1239813,7.51137858 55.3723976,7.28866003 55.6713676,7.28933905 L65.3729955,7.28832052 C65.6830137,7.28832052 65.9320996,7.51715025 65.9327692,7.84274031 L65.9320996,9.72532312 C65.929756,10.0410674 65.6676132,10.4532325 65.2015815,11.1071287 L60.1763405,18.383167 C62.0418064,18.3390307 64.0150756,18.6218425 65.7101319,19.5880879 C66.0921306,19.8057138 66.1945772,20.1285877 66.2247086,20.445011 L66.2247086,22.7869508 C66.2247086,23.1098248 65.876524,23.4832858 65.5105954,23.2890861 C62.5242429,21.7028955 58.5616345,21.5290664 55.2599072,23.3080986 C54.922436,23.4904155 54.5692295,23.1223867 54.5692295,22.7995127 L54.5692295,20.5730063 C54.5692295,20.2168603 54.5759254,19.6074399 54.9301362,19.064224 L60.7525191,10.5937896 L55.6830854,10.5931106 C55.373402,10.5931106 55.1246509,10.369034 55.1226421,10.0403884 M19.7336963,23.7504801 L16.7824971,23.7504801 C16.5016059,23.7318071 16.2769599,23.5175763 16.2545288,23.2446103 L16.2565375,7.88280249 C16.2565375,7.57554596 16.5113149,7.32974074 16.8260202,7.32974074 L19.5746697,7.32906172 C19.8622568,7.34400016 20.0932638,7.56468164 20.1113427,7.84477737 L20.1113427,9.8506023 L20.1665835,9.8506023 C20.8830402,7.91098182 22.2329251,7.00584823 24.0511852,7.00584823 C25.8968983,7.00584823 27.0542773,7.91098182 27.8808809,9.8506023 C28.5970028,7.91098182 30.2224222,7.00584823 31.9583233,7.00584823 C33.1980613,7.00584823 34.5479461,7.52292192 35.3745497,8.68676211 C36.3113002,9.97961609 36.1187943,11.8547297 36.1187943,13.5033901 L36.1164507,23.1974184 C36.1164507,23.5043354 35.8613386,23.7504801 35.5473028,23.7504801 L32.5991168,23.7504801 C32.3028251,23.7311281 32.0691397,23.4931316 32.0691397,23.1987764 L32.0684701,15.0549507 C32.0684701,14.4085237 32.1237109,12.7921167 31.9857763,12.1779432 C31.7654826,11.1434563 31.1042666,10.8524962 30.25021,10.8524962 C29.5340881,10.8524962 28.7898435,11.3373165 28.486856,12.1134363 C28.1838684,12.8892166 28.2116562,14.1820705 28.2116562,15.0549507 L28.2116562,23.1974184 C28.2116562,23.5043354 27.956544,23.7504801 27.6421735,23.7504801 L24.6943223,23.7504801 C24.3980306,23.7311281 24.1643452,23.4931316 24.1643452,23.1987764 L24.161332,15.0549507 C24.161332,13.3417834 24.4368666,10.8202428 22.3430719,10.8202428 C20.2214895,10.8202428 20.3041834,13.276937 20.3041834,15.0549507 L20.303179,23.1974184 C20.3035138,23.5043354 20.0484016,23.7504801 19.7336963,23.7504801 M74.3116304,10.1412228 C72.1348072,10.1412228 71.9971925,13.1475837 71.9971925,15.0223577 C71.9971925,16.8974713 71.9697543,20.9060656 74.2841774,20.9060656 C76.5711475,20.9060656 76.6809596,17.6732516 76.6809596,15.7013777 C76.6809596,14.4085237 76.6260535,12.8566236 76.2403721,11.6282765 C75.909262,10.5615362 75.2480461,10.1412228 74.3116304,10.1412228 Z M74.2841774,7.00584823 C78.6649421,7.00584823 81.0339365,10.8202428 81.0339365,15.6691242 C81.0339365,20.3560594 78.4171954,24.0740331 74.2841774,24.0740331 C69.9861065,24.0740331 67.6442303,20.2592991 67.6442303,15.5075175 C67.6442303,10.7231429 70.0135595,7.00584823 74.2841774,7.00584823 L74.2841774,7.00584823 Z M86.7150368,23.7504801 L83.774551,23.7504801 C83.4789289,23.7311281 83.2449086,23.4931316 83.2449086,23.1987764 L83.2402215,7.83119697 C83.2649962,7.55042222 83.5097298,7.32974074 83.8070259,7.32974074 L86.544962,7.32906172 C86.8024177,7.34230261 87.0150112,7.52088486 87.0692476,7.75922086 L87.0692476,10.1089694 L87.1248232,10.1089694 C87.9514268,8.00774216 89.1081362,7.00584823 91.1470248,7.00584823 C92.4691219,7.00584823 93.7644355,7.49066847 94.5910391,8.81611541 C95.3627367,10.0444625 95.3627367,12.1134363 95.3627367,13.6001504 L95.3627367,23.2663389 C95.3292574,23.5389654 95.0885413,23.7504801 94.7969367,23.7504801 L91.8380373,23.7504801 C91.5648463,23.7324861 91.3445526,23.5291196 91.3124125,23.2663389 L91.3124125,14.9255974 C91.3124125,13.2446835 91.5052532,10.7879893 89.4663646,10.7879893 C88.7499078,10.7879893 88.0886919,11.2728096 87.7585861,12.0163364 C87.3454517,12.9537235 87.2898761,13.8911105 87.2898761,14.9255974 L87.2898761,23.1974184 C87.2845194,23.5043354 87.0294073,23.7504801 86.7150368,23.7504801 M97.2124673,22.5316393 C97.2124673,21.7585751 97.8633046,21.1318397 98.6654684,21.1318397 C99.4679669,21.1318397 100.1178,21.7585751 100.1178,22.5316393 C100.1178,23.304364 99.4679669,23.9307599 98.6654684,23.9307599 C97.8633046,23.9307599 97.2124673,23.304364 97.2124673,22.5316393 M128.483126,23.7545543 C128.17679,23.745048 127.932392,23.5029774 127.932392,23.2021715 L127.932392,7.83832668 C127.953484,7.56739772 128.178799,7.35146938 128.460695,7.33313584 L129.544085,7.33279633 C129.842385,7.33279633 130.087119,7.55381732 130.111224,7.83866619 L130.111224,10.078753 C130.881582,8.30379486 132.316839,6.913162 134.131417,6.913162 L134.244911,6.91485955 L134.354389,6.913162 C136.278778,6.913162 137.687252,8.3530238 138.210198,10.4447448 C139.025754,8.37950558 140.562453,6.913162 142.588619,6.913162 L142.694079,6.91485955 L142.812261,6.913162 C144.244505,6.913162 145.622178,7.85054904 146.338969,9.27275632 C147.027303,10.6304567 147,12.4407239 147,13.960031 L146.999181,23.2028506 C147,23.4972057 146.76583,23.7352022 146.469538,23.7545543 L145.172885,23.7545543 C144.893668,23.745727 144.665005,23.5430395 144.627508,23.2775427 L144.627508,13.960031 C144.627508,12.8610372 144.682414,11.697197 144.241826,10.6949636 C143.791195,9.66930397 142.933456,9.03204375 142.010767,8.98485186 C140.980274,9.03679689 140.034484,9.79492266 139.423153,10.8243169 C138.624337,12.1497638 138.652459,13.3458575 138.652459,14.8974181 L138.652459,23.2829749 C138.615632,23.5376074 138.397347,23.7365602 138.127169,23.7545543 L136.837213,23.7545543 C136.531212,23.745048 136.285809,23.5029774 136.285809,23.2021715 L136.280117,13.3458575 C136.280117,12.4407239 136.225211,11.3739836 135.811742,10.5656103 C135.335666,9.63569248 134.480605,9.03272277 133.5847,8.98485186 C132.655315,9.03747591 131.715216,9.75791607 131.158121,10.5982033 C130.441999,11.6649436 130.304064,12.9903905 130.304064,14.3480909 L130.303395,23.2028506 C130.303395,23.4972057 130.069375,23.7352022 129.773752,23.7545543 L128.483126,23.7545543 M119.897363,21.9745035 C121.275035,21.9290091 122.361773,21.0635982 123.005245,19.6169462 C123.583432,18.3240922 123.693914,16.8370385 123.693914,15.4148313 C123.693914,13.8629312 123.528526,12.2468637 122.812404,10.9214168 C122.170941,9.76199019 121.064451,9.02796963 119.892676,8.98383333 C118.588323,9.03238326 117.425587,9.92665253 116.836352,11.3091371 C116.313405,12.5052308 116.148017,14.0893843 116.148017,15.4148313 C116.148017,16.9015454 116.340858,18.6147128 116.947168,19.9079063 C117.535399,21.1328582 118.671351,21.9307067 119.897363,21.9745035 Z M119.588684,24.0781073 C115.401094,24.0781073 113.527928,19.7462995 113.527928,15.4148313 C113.527928,10.8565704 115.732205,6.913162 119.946912,6.913162 L120.05572,6.91418053 L120.169884,6.913162 C124.275114,6.913162 126.314003,11.115277 126.314003,15.4467452 C126.314003,20.0372596 124.054821,24.0781073 119.811656,24.0781073 L119.703183,24.0767492 L119.588684,24.0781073 L119.588684,24.0781073 Z M106.5023,21.9103361 C108.382162,21.8505823 109.369131,20.3227874 109.778918,18.3420863 C109.858933,18.0952625 110.045748,17.9051369 110.319943,17.9051369 L111.563364,17.8997048 C111.856308,17.9153222 112.125816,18.1427939 112.103719,18.4201735 C111.52955,21.789131 109.52414,24.0781073 106.666014,24.0781073 L106.550845,24.0767492 L106.443042,24.0781073 C102.282905,24.0781073 100.491763,19.8433994 100.491763,15.5438451 C100.491763,11.2768837 102.310358,6.913162 106.470495,6.913162 L106.580307,6.91418053 L106.693467,6.913162 C109.580386,6.913162 111.640701,9.16920578 112.087984,12.5402003 C112.087984,12.7931352 111.856308,13.0121192 111.585125,13.0440331 L110.281777,13.0284157 C110.011264,12.989372 109.83215,12.7506965 109.791305,12.4858787 C109.477604,10.6039749 108.411624,9.10775447 106.635882,9.04834023 C103.806882,9.14000792 103.00204,12.6705721 103.00204,15.3822383 C103.00204,17.9998602 103.673635,21.8156128 106.5023,21.9103361 M50.3645658,23.7121155 C50.1690468,23.8896792 49.887486,23.9015621 49.6671923,23.7817151 C48.6869187,22.9553478 48.5111525,22.5733991 47.9754839,21.787094 C46.3550864,23.4605386 45.2074164,23.9626739 43.1092695,23.9626739 C40.6244368,23.9626739 38.6913427,22.4077182 38.6913427,19.2978068 C38.6913427,16.8679339 39.9889999,15.2158784 41.8390653,14.4058076 C43.4403796,13.6928367 45.6771308,13.5634834 47.3889268,13.3689442 L47.3889268,12.9802052 C47.3889268,12.2675738 47.4441676,11.4252496 47.0300288,10.809718 C46.670796,10.2590328 45.9807879,10.0322401 45.3731389,10.0322401 C44.2475652,10.0322401 43.2468693,10.6172158 43.0007966,11.8296059 C42.9499081,12.0991769 42.7557282,12.3660317 42.4882287,12.3796121 L39.6274236,12.0655654 C39.3860379,12.0105648 39.117534,11.8139885 39.187171,11.440188 C39.8447042,7.9204881 42.9787002,6.85714286 45.7876124,6.85714286 C47.2232043,6.85714286 49.1007227,7.24588178 50.2326574,8.34759164 C51.668584,9.70834762 51.5303146,11.5223494 51.5303146,13.498637 L51.5303146,18.1618065 C51.5303146,19.5643222 52.105154,20.1798537 52.6445053,20.9356029 C52.8329937,21.2078899 52.8755124,21.5317825 52.6347963,21.7307353 C52.0318343,22.2430559 50.9608319,23.1868936 50.3712617,23.7185662 L50.3645658,23.7121155 Z M47.3889268,16.4143486 C47.3889268,17.5805654 47.4163798,18.5525824 46.8365185,19.5894459 C46.3671389,20.4317701 45.62189,20.9498624 44.7932776,20.9498624 C43.6613429,20.9498624 42.9987878,20.0749452 42.9987878,18.7793751 C42.9987878,16.2303342 45.2536178,15.7665636 47.3889268,15.7665636 L47.3889268,16.4143486 L47.3889268,16.4143486 Z M11.6728883,23.7121155 C11.4773693,23.8896792 11.1954737,23.9015621 10.9755147,23.7817151 C9.99490642,22.9553478 9.81947496,22.5733991 9.28347157,21.787094 C7.66374365,23.4605386 6.51607368,23.9626739 4.41759196,23.9626739 C1.93242446,23.9626739 8.61533067e-14,22.4077182 8.61533067e-14,19.2978068 C8.61533067e-14,16.8679339 1.29765717,15.2158784 3.1473878,14.4058076 C4.7490369,13.6928367 6.98545329,13.5634834 8.69691445,13.3689442 L8.69691445,12.9802052 C8.69691445,12.2675738 8.75249007,11.4252496 8.33835129,10.809718 C7.97945333,10.2590328 7.28877563,10.0322401 6.68179615,10.0322401 C5.55622252,10.0322401 4.55485703,10.6172158 4.30945386,11.8296059 C4.25823055,12.0991769 4.06438547,12.3660317 3.79655118,12.3796121 L0.936080872,12.0655654 C0.694360418,12.0105648 0.425521741,11.8139885 0.495493452,11.440188 C1.15269186,7.9204881 4.28702274,6.85714286 7.09560014,6.85714286 C8.53152678,6.85714286 10.4090452,7.24588178 11.5413147,8.34759164 C12.9769065,9.70834762 12.8389719,11.5223494 12.8389719,13.498637 L12.8389719,18.1618065 C12.8389719,19.5643222 13.4131417,20.1798537 13.9528278,20.9356029 C14.1409814,21.2078899 14.1835001,21.5317825 13.9431188,21.7307353 C13.3404916,22.2430559 12.2688196,23.1868936 11.679919,23.7185662 L11.6728883,23.7121155 Z M8.69691445,16.4143486 C8.69691445,17.5805654 8.72470226,18.5525824 8.14484101,19.5894459 C7.67579619,20.4317701 6.93021247,20.9498624 6.1019349,20.9498624 C4.9700002,20.9498624 4.30711031,20.0749452 4.30711031,18.7793751 C4.30711031,16.2303342 6.5622751,15.7665636 8.69691445,15.7665636 L8.69691445,16.4143486 L8.69691445,16.4143486 Z" id="Amazon"></path>
                </g>
            </g>
        </g>
    </g>
</svg>