<?xml version="1.0" encoding="UTF-8"?>
<svg width="130px" height="36px" viewBox="0 0 130 36" version="1.1" xmlns="http://www.w3.org/2000/svg" xmlns:xlink="http://www.w3.org/1999/xlink">
    <g id="Zipy-Demo-App" stroke="none" stroke-width="1" fill="none" fill-rule="evenodd">
        <g id="ZipyDemo_Web-Ecom-1" transform="translate(-960.000000, -1742.000000)" fill="#969696">
            <g id="brands" transform="translate(0.000000, 1626.000000)">
                <g id="Logo-/-Brands-/-#1-Copy-4" transform="translate(960.000000, 116.000000)">
                    <path d="M12.1965646,5.14596935 L12.1965646,9.12330697 L10.0111209,9.12330697 C10.0111209,9.12330697 8.03702671,8.83915749 8.03702671,10.7569777 L8.03702671,13.8821186 L12.1965646,13.8821186 L11.703166,18.1989758 L8.03702671,18.1989758 L8.03702671,30.2887936 L3.24319047,30.2887936 L3.24319047,18.1438574 L1.76747506e-13,18.1438574 L1.76747506e-13,13.8821186 L3.38409014,13.8821186 L3.38409014,10.2596532 C3.38409014,10.2596532 2.96114133,8.27111022 4.72363623,6.6374395 C6.48613113,5.00402045 8.8124745,5.14596935 8.8124745,5.14596935 L12.1965646,5.14596935 Z M23.497592,23.7898999 C23.497592,25.4374132 22.1075819,26.9862669 20.3930528,26.9862669 C18.6782739,26.9862669 17.2882638,25.4374132 17.2882638,23.7898999 L17.2882638,20.6650107 C17.2882638,19.0174974 18.6782739,17.4688954 20.3930528,17.4688954 C22.1075819,17.4688954 23.497592,19.0174974 23.497592,20.6650107 L23.497592,23.7898999 Z M23.7556582,13.9531434 L23.7556582,16.1203809 C22.5325292,14.4987909 20.8219973,13.4913061 18.9293451,13.4913061 C15.210993,13.4913061 12.1966396,16.7941348 12.1966396,22.1740986 C12.1966396,27.518827 15.210993,30.8568912 18.9293451,30.8568912 C20.8399845,30.8568912 22.5647563,29.8305302 23.7903835,28.1817585 L23.7586561,30.2888439 L28.3763678,30.2888439 L28.3763678,13.9531434 L23.7556582,13.9531434 Z M66.3548727,20.558549 C66.3548727,18.9110358 67.7448828,17.362182 69.4594119,17.362182 C71.1741908,17.362182 72.5642009,18.9110358 72.5642009,20.558549 L72.5642009,23.6834382 C72.5642009,25.3309515 71.1741908,26.8795536 69.4594119,26.8795536 C67.7448828,26.8795536 66.3548727,25.3309515 66.3548727,23.6834382 L66.3548727,20.558549 Z M66.0968064,30.3953056 L66.0968064,28.2280681 C67.3199354,29.849658 69.0304673,30.8571429 70.9231196,30.8571429 C74.6414717,30.8571429 77.6558251,27.5543142 77.6558251,22.1740986 C77.6558251,16.829622 74.6414717,13.4913061 70.9231196,13.4913061 C69.0124802,13.4913061 67.2877084,14.5179188 66.0620812,16.1664387 L66.0938086,5.3780709 L61.2917282,5.92246002 L61.2917282,30.3208076 L66.0968064,30.3953056 Z M38.8102876,26.8951327 C38.8102876,26.8951327 35.1089234,27.1083077 35.1089234,22.2785217 L35.1089234,22.0145068 C35.1089234,17.1847207 38.8102876,17.3978958 38.8102876,17.3978958 C41.3130054,17.3621569 42.1943777,18.2500925 42.1943777,18.2500925 L43.3575494,14.7343405 C41.3482303,13.2428703 35.2852978,12.9942081 32.5709807,15.5155628 C30.2224032,17.6973979 30.2229028,21.2327811 30.2656224,22.1463884 C30.2229028,23.0599957 30.2224032,26.5956306 32.5709807,28.777214 C35.2852978,31.2985687 41.3482303,31.0501581 43.3575494,29.558688 L42.1943777,26.0429359 C42.1943777,26.0429359 41.3130054,26.9306199 38.8102876,26.8951327 M48.8917584,20.5939104 C48.8917584,20.5939104 48.6449342,16.9716967 51.8881247,16.9716967 C55.1310653,16.9716967 54.8842411,20.5939104 54.8842411,20.5939104 L48.8917584,20.5939104 Z M59.2906032,23.8964874 C59.2906032,23.8964874 61.2292227,13.668868 51.9585745,13.6134979 C42.6876764,13.5578761 44.0272225,22.8666029 44.0272225,22.8666029 C44.2388219,28.5130984 46.8119895,30.1467692 51.2183516,30.6793292 C55.624464,31.2121409 58.9733292,29.5074958 58.9733292,29.5074958 L57.9510572,26.2049188 C57.9510572,26.2049188 54.3908424,27.3057778 51.5708506,27.0571155 C48.7508588,26.8087049 48.9622083,23.8964874 48.9622083,23.8964874 L59.2906032,23.8964874 Z M90.3530582,23.7035225 C90.3530582,25.3510357 88.9268238,26.8998895 87.1673268,26.8998895 C85.4080796,26.8998895 83.9815954,25.3510357 83.9815954,23.7035225 L83.9815954,20.5786333 C83.9815954,18.93112 85.4080796,17.382518 87.1673268,17.382518 C88.9268238,17.382518 90.3530582,18.93112 90.3530582,20.5786333 L90.3530582,23.7035225 Z M87.2085475,13.7142464 C81.173595,13.7142464 79.1425414,17.382518 79.1425414,22.2855436 C79.1425414,27.4873163 81.7596777,30.8570925 87.2085475,30.8570925 C91.6633751,30.8570925 95.2748033,27.8416852 95.2748033,22.2855436 C95.2748033,17.5519003 92.9701945,13.7142464 87.2085475,13.7142464 L87.2085475,13.7142464 Z M108.164899,23.7035225 C108.164899,25.3510357 106.738665,26.8998895 104.979168,26.8998895 C103.219921,26.8998895 101.793436,25.3510357 101.793436,23.7035225 L101.793436,20.5786333 C101.793436,18.93112 103.219921,17.382518 104.979168,17.382518 C106.738665,17.382518 108.164899,18.93112 108.164899,20.5786333 L108.164899,23.7035225 Z M105.020388,13.7142464 C98.9854359,13.7142464 96.9543823,17.382518 96.9543823,22.2855436 C96.9543823,27.4873163 99.5715186,30.8570925 105.020388,30.8570925 C109.475216,30.8570925 113.086644,27.8416852 113.086644,22.2855436 C113.086644,17.5519003 110.782035,13.7142464 105.020388,13.7142464 L105.020388,13.7142464 Z M130,30.3600952 L124.726755,22.1356164 L129.765667,13.9108859 L124.609589,13.9108859 L119.687843,21.2733523 L119.687843,5.2930274 L114.844293,5.80444612 L114.844293,30.3600952 L119.687843,30.3600952 L119.687843,21.9931641 L125.000061,30.3600952 L130,30.3600952 Z" id="Facebook"></path>
                </g>
            </g>
        </g>
    </g>
</svg>