<?xml version="1.0" encoding="UTF-8"?>
<svg width="135px" height="36px" viewBox="0 0 135 36" version="1.1" xmlns="http://www.w3.org/2000/svg" xmlns:xlink="http://www.w3.org/1999/xlink">
    <g id="Zipy-Demo-App" stroke="none" stroke-width="1" fill="none" fill-rule="evenodd">
        <g id="ZipyDemo_Web-Ecom-1" transform="translate(-558.000000, -1742.000000)" fill="#969696">
            <g id="brands" transform="translate(0.000000, 1626.000000)">
                <g id="Logo-/-Brands-/-#1-Copy-2" transform="translate(558.000000, 116.000000)">
                    <path d="M3.09974268e-13,5.27210246 L3.09974268e-13,29.2498759 L15.0251175,29.2498759 L15.0251175,24.4032946 L5.26953657,24.4032946 L5.26953657,5.27210246 L3.09974268e-13,5.27210246 Z M19.884904,4.91678424 C21.5066831,4.91678424 22.8229405,6.22886305 22.8229405,7.84407488 C22.8229405,9.46212414 21.5066831,10.7704197 19.884904,10.7704197 C18.2650226,10.7704197 16.9487652,9.46212414 16.9487652,7.84407488 C16.9487652,6.22886305 18.2650226,4.91678424 19.884904,4.91678424 L19.884904,4.91678424 Z M17.3524902,29.2433261 L22.4173178,29.2433261 L22.4173178,12.9940256 L17.3524902,12.9940256 L17.3524902,29.2433261 Z M68.6183088,12.4982778 C73.3489128,12.4982778 76.3170745,15.8634798 76.3170745,21.0791645 L76.3170745,22.6610365 L64.5680123,22.6610365 C64.9700769,24.5796177 66.4241511,25.8247803 68.382763,25.8247803 C70.0377509,25.8247803 71.1509598,24.9830069 71.995414,23.8388099 L75.5399868,26.4303369 C73.9191566,28.4836966 71.2534329,29.6626522 68.6183088,29.6626522 C63.5551417,29.6626522 59.5034219,26.2955586 59.5034219,21.0791645 C59.5034219,15.8634798 63.5551417,12.4982778 68.6183088,12.4982778 Z M48.6506198,5.27042365 L48.6506198,19.6011429 L54.3860294,12.9868374 L60.5930051,12.9868374 L53.950756,20.5103054 L60.4542394,29.2498522 L54.089996,29.2498522 L48.7165631,21.2173005 L48.6506198,21.2173005 L48.6506198,29.2498522 L43.5879271,29.2498522 L43.5879271,5.27042365 L48.6506198,5.27042365 Z M68.1448452,16.1330365 C65.917953,16.1330365 64.7015594,17.6475192 64.5680123,19.2296276 L71.2534329,19.2296276 C71.2864046,17.5467901 69.9699099,16.1330365 68.1448452,16.1330365 Z M25.2183439,12.9963665 L30.0798858,12.9963665 L30.0798858,15.2176079 L30.1477268,15.2176079 C30.8223413,13.9386325 32.477092,12.5929773 34.9414276,12.5929773 C40.0740962,12.5929773 41.0191259,15.9581793 41.0191259,20.3323271 L41.0191259,29.2433025 L35.9545355,29.2433025 L35.9545355,21.3426916 C35.9545355,19.4574502 35.9196662,17.0352236 33.3196486,17.0352236 C30.6868966,17.0352236 30.2829343,19.0885833 30.2829343,21.2079133 L30.2829343,29.2433025 L25.2183439,29.2433025 L25.2183439,12.9963665 Z M95.578814,29.2409852 L90.9186602,29.2409852 L90.9186602,27.0861872 L90.8527169,27.0861872 C90.0737316,28.2637241 88.1172546,29.6446108 85.8206238,29.6446108 C80.9574215,29.6446108 77.7506304,26.1458128 77.7506304,21.1977931 C77.7506304,16.6538719 80.5864309,12.4807094 85.2453986,12.4807094 C87.3406413,12.4807094 89.2983044,13.0524532 90.4463826,14.6343251 L90.5123259,14.6343251 L90.5123259,5.27030542 L95.578814,5.27030542 L95.578814,29.2409852 Z M86.8648056,16.9234286 C84.3345267,16.9234286 82.8154579,18.6074483 82.8154579,21.0623054 C82.8154579,23.5211823 84.3345267,25.2016552 86.8648056,25.2016552 C89.3986427,25.2016552 90.9186602,23.5211823 90.9186602,21.0623054 C90.9186602,18.6074483 89.3986427,16.9234286 86.8648056,16.9234286 L86.8648056,16.9234286 Z M132.273741,0.236334975 C133.667091,0.236334975 134.802123,1.33536946 134.802123,2.6897734 L134.802123,2.6897734 L134.802123,31.8290837 C134.802123,33.1849064 133.667091,34.2853596 132.273741,34.2853596 L132.273741,34.2853596 L103.164741,34.2853596 C101.773763,34.2853596 100.643476,33.1849064 100.643476,31.8290837 L100.643476,31.8290837 L100.643476,2.6897734 C100.643476,1.33536946 101.773763,0.236334975 103.164741,0.236334975 L103.164741,0.236334975 Z M110.774435,13.0013084 L105.707947,13.0013084 L105.707947,29.2506089 L110.774435,29.2506089 L110.774435,13.0013084 Z M123.67307,12.59747 C121.208497,12.59747 119.555881,13.9440709 118.879369,15.2216276 L118.879369,15.2216276 L118.811528,15.2216276 L118.811528,13.001332 L113.952358,13.001332 L113.952358,29.2506325 L119.01434,29.2506325 L119.01434,21.2124059 C119.01434,19.0930759 119.419013,17.0404256 122.055086,17.0404256 C124.652969,17.0404256 124.687838,19.4643074 124.687838,21.348603 L124.687838,29.2506325 L129.750531,29.2506325 L129.750531,20.3377655 C129.750531,15.9631448 128.803367,12.59747 123.67307,12.59747 Z M108.242496,4.924067 C106.618582,4.924067 105.304222,6.23614581 105.304222,7.85135764 C105.304222,9.46798818 106.618582,10.780067 108.242496,10.780067 C109.86214,10.780067 111.178398,9.46798818 111.178398,7.85135764 C111.178398,6.23614581 109.86214,4.924067 108.242496,4.924067 Z" id="Linked-In"></path>
                </g>
            </g>
        </g>
    </g>
</svg>