<?xml version="1.0" encoding="UTF-8"?>
<svg width="110px" height="36px" viewBox="0 0 110 36" version="1.1" xmlns="http://www.w3.org/2000/svg" xmlns:xlink="http://www.w3.org/1999/xlink">
    <g id="Zipy-Demo-App" stroke="none" stroke-width="1" fill="none" fill-rule="evenodd">
        <g id="ZipyDemo_Web-Ecom-1" transform="translate(-1148.000000, -1742.000000)" fill="#969696">
            <g id="brands" transform="translate(0.000000, 1626.000000)">
                <g id="Logo-/-Brands-/-#1-Copy-5" transform="translate(1147.999922, 115.999896)">
                    <path d="M27.1288995,14.8993043 C27.1309918,14.8366957 27.132038,14.6632174 27.132038,14.8993043 L27.1288995,14.8993043 Z M27.126284,14.8993043 C27.1273302,14.9298261 27.1281148,14.9217391 27.1288995,14.8993043 L27.126284,14.8993043 Z M13.9677582,27.9641739 C13.9368954,27.9652174 13.9450034,27.966 13.9677582,27.9667826 L13.9677582,27.9641739 Z M20.8347249,6.6873913 C19.9258424,5.83565217 18.8506148,5.14982609 17.6592595,4.67947826 C16.5186447,4.22895652 15.2734103,3.9813913 13.9677582,3.9813913 C11.1984783,3.9813913 8.70670177,5.09426087 6.90907609,6.89452174 C5.10438859,8.70208696 3.99202106,11.2069565 3.99202106,13.9802609 C3.99202106,16.7546087 5.10465014,19.2623478 6.91038383,21.072 C8.70827106,22.8738261 11.1995245,23.9885217 13.9677582,23.9885217 C14.4913791,23.9885217 13.6845007,24 14.1210258,23.9953043 C16.840873,23.9663478 19.1124253,23.1341739 20.6770109,21.6070435 C21.8981827,20.4151304 22.7194463,18.7687826 23.0202276,16.7165217 L14.0776087,16.7165217 L14.0776087,12.7351304 L25.1351121,12.7351304 L27.1016984,12.7351304 L27.1231454,14.7104348 C27.1241916,14.8147826 27.1252378,14.8721739 27.126284,14.8993043 L27.1241916,14.8993043 C27.1241916,18.945913 25.7806148,22.1804348 23.4682609,24.4377391 C21.1572147,26.6932174 17.9289164,27.9211304 14.1524117,27.9613043 C14.0506692,27.9623478 13.9946977,27.9633913 13.9677582,27.9641739 L13.9677582,27.9667826 C14.0323607,27.9688696 14.2149219,27.969913 13.9677582,27.969913 C10.1028499,27.969913 6.61457201,26.4036522 4.08800951,23.8713913 C1.55883152,21.3365217 8.8817842e-14,17.838 8.8817842e-14,13.9802609 C8.8817842e-14,10.1225217 1.55856997,6.62713043 4.08696332,4.09513043 C6.61378736,1.56443478 10.1025883,0 13.9677582,0 C15.7868308,0 17.5269158,0.346956522 19.1249796,0.97773913 C20.7777072,1.63043478 22.2808288,2.59278261 23.5634647,3.7946087 L20.8347249,6.6873913 Z M41.3117816,15.1571478 C40.3749134,14.192713 39.078677,13.5961043 37.6453889,13.5961043 C36.2118393,13.5961043 34.9156029,14.192713 33.9787347,15.1571478 C33.0405588,16.1231478 32.4601817,17.4645391 32.4601817,18.9525391 C32.4601817,20.4405391 33.0405588,21.7821913 33.9787347,22.7479304 C34.9156029,23.7123652 36.2118393,24.3089739 37.6453889,24.3089739 C39.078677,24.3089739 40.3749134,23.7123652 41.3117816,22.7479304 C42.2499575,21.7821913 42.8303346,20.4405391 42.8303346,18.9525391 C42.8303346,17.4645391 42.2499575,16.1231478 41.3117816,15.1571478 M37.6453889,10.0156696 C40.1460581,10.0156696 42.4115948,11.0189739 44.0528142,12.6408 C45.6929874,14.2613217 46.7072741,16.4933217 46.7072741,18.9525391 C46.7072741,21.4117565 45.6929874,23.6437565 44.0528142,25.2642783 C42.4115948,26.8863652 40.1460581,27.8894087 37.6453889,27.8894087 C35.1447198,27.8894087 32.8789215,26.8863652 31.2377021,25.2642783 C29.5977904,23.6437565 28.5835037,21.4117565 28.5835037,18.9525391 C28.5835037,16.4933217 29.5977904,14.2613217 31.2377021,12.6408 C32.8789215,11.0189739 35.1447198,10.0156696 37.6453889,10.0156696 M60.8016481,15.1571478 C59.8647799,14.192713 58.5685435,13.5961043 57.1352554,13.5961043 C55.7017058,13.5961043 54.4054694,14.192713 53.4686012,15.1571478 C52.5306868,16.1231478 51.9503098,17.4645391 51.9503098,18.9525391 C51.9503098,20.4405391 52.5306868,21.7821913 53.4686012,22.7479304 C54.4054694,23.7123652 55.7017058,24.3089739 57.1352554,24.3089739 C58.5685435,24.3089739 59.8647799,23.7123652 60.8016481,22.7479304 C61.739824,21.7821913 62.3202011,20.4405391 62.3202011,18.9525391 C62.3202011,17.4645391 61.739824,16.1231478 60.8016481,15.1571478 M57.1352554,10.0156696 C59.6359246,10.0156696 61.9014613,11.0189739 63.5429423,12.6408 C65.1828539,14.2613217 66.1971406,16.4933217 66.1971406,18.9525391 C66.1971406,21.4117565 65.1828539,23.6437565 63.5429423,25.2642783 C61.9014613,26.8863652 59.6359246,27.8894087 57.1352554,27.8894087 C54.6345863,27.8894087 52.3690496,26.8863652 50.7275686,25.2642783 C49.0876569,23.6437565 48.0731087,21.4117565 48.0731087,18.9525391 C48.0731087,16.4933217 49.0876569,14.2613217 50.7275686,12.6408 C52.3690496,11.0189739 54.6345863,10.0156696 57.1352554,10.0156696 M79.9625122,15.1571478 C79.0701073,14.192713 77.8353349,13.5961043 76.4700496,13.5961043 C75.1045027,13.5961043 73.8699918,14.192713 72.977587,15.1571478 C72.0838743,16.1231478 71.5312215,17.4645391 71.5312215,18.9525391 C71.5312215,21.9595826 73.5637181,24.4073217 76.4700496,24.4073217 C77.8353349,24.4073217 79.0701073,23.7123652 79.9625122,22.7479304 C80.8562249,21.7821913 81.4088777,20.4405391 81.4088777,18.9525391 C81.4088777,17.4645391 80.8562249,16.1231478 79.9625122,15.1571478 M75.7847914,10.0156696 C78.2245197,10.0156696 79.7041019,10.7891478 81.0338166,12.0752348 L81.0338166,10.5196696 L84.7389185,10.5196696 L84.7389185,27.546887 C84.7389185,29.9215826 83.6202738,32.4971478 82.1053825,33.8406261 C80.6462011,35.1348 78.685892,35.9515826 76.745199,35.9515826 C74.9729436,35.9515826 73.1936264,35.610887 71.6384565,34.6561043 C70.2548628,33.806713 69.0744925,32.5378435 68.2647371,30.7506261 L71.662519,29.2232348 C72.6244959,31.3461913 74.0601379,32.4400174 76.745199,32.4400174 C78.6474443,32.4400174 81.0338166,30.680713 81.0338166,27.7819304 L81.0338166,25.8254087 C79.6837011,27.1143652 78.1528553,27.8894087 76.1640374,27.8894087 C73.9016393,27.8894087 71.4726345,26.8863652 69.9875598,25.2642783 C68.5037928,23.6437565 67.5860177,21.4117565 67.5860177,18.9525391 C67.5860177,13.9853217 71.6991359,10.0156696 75.7847914,10.0156696 M87.1343142,27.3773217 L90.9599901,27.3773217 L90.9599901,1.15053913 L87.1343142,1.15053913 L87.1343142,27.3773217 Z M97.1788125,21.6657652 C98.6848111,25.2443739 103.991377,25.2837652 106.002688,21.9407217 L109.032471,23.966113 C107.177043,26.678113 104.474196,27.9480261 101.530202,27.9642063 C98.908697,27.9670696 96.7990435,26.9872435 95.2224266,25.3998522 C91.3700727,21.5209826 92.1944749,15.5692435 94.8638431,12.7476783 C97.0417609,10.4460261 100.401095,9.27576522 103.866357,10.5310696 C106.116985,11.346287 107.943904,13.3210696 109.279111,16.7533304 C105.24315,18.3850696 101.220528,20.0423739 97.1788125,21.6657652 M96.5699266,18.6407217 L104.717698,15.3678522 C103.279441,13.5235043 101.190188,12.6305478 98.4366012,14.5043739 C97.3775897,15.3965478 96.4501372,16.9195043 96.5699266,18.6407217" id="Google"></path>
                </g>
            </g>
        </g>
    </g>
</svg>