<?xml version="1.0" encoding="UTF-8"?>
<svg width="122px" height="36px" viewBox="0 0 122 36" version="1.1" xmlns="http://www.w3.org/2000/svg" xmlns:xlink="http://www.w3.org/1999/xlink">
    <g id="Zipy-Demo-App" stroke="none" stroke-width="1" fill="none" fill-rule="evenodd">
        <g id="ZipyDemo_Web-Ecom-1" transform="translate(-363.000000, -1742.000000)" fill="#969696">
            <g id="brands" transform="translate(0.000000, 1626.000000)">
                <g id="Logo-/-Brands-/-#1-Copy" transform="translate(363.000000, 116.000000)">
                    <path d="M41.3833948,7.30525393 L34.8313653,7.30525393 L34.8313653,15.8068657 L28.0077491,15.8068657 L28.0077491,7.30525393 L21.4531365,7.30525393 L21.4531365,28.6962165 L28.0077491,28.6962165 L28.0077491,20.280992 L34.8313653,20.280992 L34.8313653,28.6962165 L41.3833948,28.6962165 L41.3833948,7.30525393 Z M64.1870849,24.3992761 L64.1870849,7.30525393 L57.6321033,7.30525393 L57.6321033,28.6962165 L69.4837638,28.6962165 L70.4697417,24.3992761 L64.1870849,24.3992761 Z M46.2321033,28.6962165 L52.7852399,28.6962165 L52.7852399,7.30525393 L46.2321033,7.30525393 L46.2321033,28.6962165 Z M72.8051661,28.6962165 L79.3571956,28.6962165 L79.3571956,7.30525393 L72.8051661,7.30525393 L72.8051661,28.6962165 Z M111.67417,12.7630924 C111.67417,11.6007239 112.842435,11.0621819 114.726568,11.0621819 C116.791144,11.0621819 119.0369,11.510293 120.561255,12.1392659 L120.024723,7.48391019 C118.31845,7.12659767 116.791144,6.85714286 114.009225,6.85714286 C108.712546,6.85714286 105.12214,8.93889266 105.12214,13.3031049 C105.12214,20.8184312 115.358672,19.2987501 115.358672,22.7887965 C115.358672,24.1301889 114.367897,24.8444463 111.943173,24.8444463 C109.79262,24.8444463 106.467159,24.1301889 104.494465,23.146109 L105.213284,28.0709196 C107.187085,28.7855446 109.879705,29.1428571 112.035424,29.1428571 C117.510332,29.1428571 122,27.3522509 122,21.9807997 C122,14.8231535 111.67417,16.1656487 111.67417,12.7630924 L111.67417,12.7630924 Z M93.1852399,23.5942201 C99.2859779,23.5942201 103.146863,20.4596482 103.146863,15.0018098 C103.146863,9.00506164 99.0184502,6.85714286 92.2841328,6.85714286 C89.6819188,6.85714286 86.5380074,7.03579912 84.2937269,7.30525393 L84.2937269,28.6962165 L90.8501845,28.6962165 L90.8501845,23.5942201 L93.1852399,23.5942201 Z M96.6815498,15.0911379 C96.6815498,17.8654564 95.3383764,19.7450232 91.9258303,19.7450232 L90.8501845,19.7450232 L90.8501845,10.9081552 C91.2306273,10.8860989 91.5892989,10.8860989 91.9258303,10.8860989 C95.1564576,10.8860989 96.6815498,12.4061475 96.6815498,15.0911379 L96.6815498,15.0911379 Z M8.88708487,23.5942201 C14.9907749,23.5942201 18.8501845,20.4596482 18.8501845,15.0018098 C18.8501845,9.00506164 14.7202952,6.85714286 7.98929889,6.85714286 C5.38487085,6.85714286 2.24280443,7.03579912 0,7.30525393 L0,28.6962165 L6.55166052,28.6962165 L6.55166052,23.5942201 L8.88708487,23.5942201 Z M12.3892989,15.0911379 C12.3892989,17.8654564 11.0416974,19.7450232 7.63062731,19.7450232 L6.55166052,19.7450232 L6.55166052,10.9081552 C6.93542435,10.8860989 7.29409594,10.8860989 7.63062731,10.8860989 C10.8597786,10.8860989 12.3892989,12.4061475 12.3892989,15.0911379 L12.3892989,15.0911379 Z" id="Philips"></path>
                </g>
            </g>
        </g>
    </g>
</svg>