<?xml version="1.0" encoding="UTF-8"?>
<svg width="20px" height="20px" viewBox="0 0 20 20" version="1.1" xmlns="http://www.w3.org/2000/svg" xmlns:xlink="http://www.w3.org/1999/xlink">
    <g id="Zipy-Demo-App" stroke="none" stroke-width="1" fill="none" fill-rule="evenodd" opacity="0.8">
        <g id="ZipyDemo_Web-Ecom-1" transform="translate(-245.000000, -10.000000)" fill="#FFFFFF">
            <g id="4.-Icons-/-Twitter" transform="translate(245.000000, 10.000000)">
                <path d="M12.2574743,18.3333333 L12.2574743,12.6321063 L14.2230763,12.6321063 L14.5172866,10.4100204 L12.2574743,10.4100204 L12.2574743,8.99100204 C12.2574743,8.34805726 12.4408045,7.90940695 13.3883255,7.90940695 L14.5966667,7.90879346 L14.5966667,5.92106339 C14.3875065,5.89406953 13.6705657,5.83333333 12.8358149,5.83333333 C11.0932332,5.83333333 9.90064197,6.86891616 9.90064197,8.77075665 L9.90064197,10.409407 L7.93,10.409407 L7.93,12.6314928 L9.90064197,12.6314928 L9.90064197,18.3333333 L5.66666667,18.3333333 C3.45752767,18.3333333 1.66666667,16.5424723 1.66666667,14.3333333 L1.66666667,5.66666667 C1.66666667,3.45752767 3.45752767,1.66666667 5.66666667,1.66666667 L14.3333333,1.66666667 C16.5424723,1.66666667 18.3333333,3.45752767 18.3333333,5.66666667 L18.3333333,14.3333333 C18.3333333,16.5424723 16.5424723,18.3333333 14.3333333,18.3333333 L12.2574743,18.3333333 Z" id="🔹-Icon-Color-2"></path>
            </g>
        </g>
    </g>
</svg>