<?xml version="1.0" encoding="UTF-8"?>
<svg width="18px" height="18px" viewBox="0 0 18 18" version="1.1" xmlns="http://www.w3.org/2000/svg" xmlns:xlink="http://www.w3.org/1999/xlink">
    <g id="Zipy-Demo-App" stroke="none" stroke-width="1" fill="none" fill-rule="evenodd">
        <g id="ZipyDemo_Web-Ecom-1" transform="translate(-1056.000000, -2115.000000)" fill="#969696">
            <g id="Footer" transform="translate(0.000000, 1997.000000)">
                <g id="4.-Icons-/-Twitter" transform="translate(1056.000000, 118.000000)">
                    <path d="M9,1.5 C6.963125,1.5 6.708125,1.50875 5.908125,1.545 C3.184375,1.67 1.670625,3.18125 1.545625,5.9075 C1.50875,6.708125 1.5,6.963125 1.5,9 C1.5,11.036875 1.50875,11.2925 1.545,12.0925 C1.67,14.81625 3.18125,16.33 5.9075,16.455 C6.708125,16.49125 6.963125,16.5 9,16.5 C11.036875,16.5 11.2925,16.49125 12.0925,16.455 C14.81375,16.33 16.33125,14.81875 16.454375,12.0925 C16.49125,11.2925 16.5,11.036875 16.5,9 C16.5,6.963125 16.49125,6.708125 16.455,5.908125 C16.3325,3.186875 14.819375,1.670625 12.093125,1.545625 C11.2925,1.50875 11.036875,1.5 9,1.5 Z M9,5.14875 C6.873125,5.14875 5.14875,6.873125 5.14875,9 C5.14875,11.126875 6.873125,12.851875 9,12.851875 C11.126875,12.851875 12.85125,11.1275 12.85125,9 C12.85125,6.873125 11.126875,5.14875 9,5.14875 Z M9,11.5 C7.619375,11.5 6.5,10.38125 6.5,9 C6.5,7.619375 7.619375,6.5 9,6.5 C10.380625,6.5 11.5,7.619375 11.5,9 C11.5,10.38125 10.380625,11.5 9,11.5 Z M13.00375,4.096875 C12.50625,4.096875 12.103125,4.5 12.103125,4.996875 C12.103125,5.49375 12.50625,5.896875 13.00375,5.896875 C13.500625,5.896875 13.903125,5.49375 13.903125,4.996875 C13.903125,4.5 13.500625,4.096875 13.00375,4.096875 Z" id="🔹-Icon-Color"></path>
                </g>
            </g>
        </g>
    </g>
</svg>