<?xml version="1.0" encoding="UTF-8"?>
<svg width="34px" height="22px" viewBox="0 0 34 22" version="1.1" xmlns="http://www.w3.org/2000/svg" xmlns:xlink="http://www.w3.org/1999/xlink">
    <g id="Zipy-Demo-App" stroke="none" stroke-width="1" fill="none" fill-rule="evenodd">
        <g id="ZipyDemo_Web-Ecom-1" transform="translate(-1079.000000, -2254.000000)">
            <g id="Footer" transform="translate(0.000000, 1997.000000)">
                <g id="Logo-/-Payment-/-Small-/-Visa" transform="translate(1079.000000, 257.000000)">
                    <path d="M28,0.5 C29.5187831,0.5 30.8937831,1.11560847 31.8890873,2.1109127 C32.8843915,3.10621694 33.5,4.48121694 33.5,6 L33.5,6 L33.5,16 C33.5,17.5187831 32.8843915,18.8937831 31.8890873,19.8890873 C30.8937831,20.8843915 29.5187831,21.5 28,21.5 L28,21.5 L6,21.5 C4.48121694,21.5 3.10621694,20.8843915 2.1109127,19.8890873 C1.11560847,18.8937831 0.5,17.5187831 0.5,16 L0.5,16 L0.5,6 C0.5,4.48121694 1.11560847,3.10621694 2.1109127,2.1109127 C3.10621694,1.11560847 4.48121694,0.5 6,0.5 L6,0.5 Z" id="◼️-Background" stroke="#E4E4E4" fill="#FFFFFF"></path>
                    <path d="M29.1966742,14.0762381 C29.1966742,14.7062349 28.7977321,14.9998478 28.0837154,14.9998478 L26.7191537,14.9998478 L26.7191537,14.369851 L28.0837154,14.369851 C28.2097452,14.369851 28.3147701,14.3489983 28.3569322,14.3071405 C28.3987899,14.2649784 28.4407999,14.2019635 28.4407999,14.1180959 C28.4407999,14.0339238 28.3989421,13.9500561 28.3569322,13.9081984 C28.3147701,13.8660363 28.2309024,13.8451835 28.1048726,13.8451835 C27.4541753,13.8240263 26.6351338,13.8660363 26.6351338,12.9422744 C26.6351338,12.5221751 26.9080462,12.060218 27.6429156,12.060218 L29.0496395,12.060218 L29.0496395,12.6902148 L27.7477882,12.6902148 C27.6220628,12.6902148 27.5378908,12.6902148 27.4748759,12.7320725 C27.411861,12.7950874 27.3700032,12.8581023 27.3700032,12.9631272 C27.3700032,13.068152 27.4330181,13.1311669 27.5168858,13.173329 C27.6010579,13.1941818 27.6850777,13.2151867 27.7901026,13.2151867 L28.1678875,13.2151867 C28.5668297,13.2151867 28.8188892,13.2990544 28.986929,13.4462414 C29.1126544,13.5931239 29.1966742,13.7823208 29.1966742,14.0762381 L29.1966742,14.0762381 Z M26.2360395,13.4462414 C26.0679998,13.2990544 25.8159402,13.2151867 25.416998,13.2151867 L25.0392131,13.2151867 C24.9343405,13.2151867 24.8501684,13.1940296 24.7663007,13.173329 C24.6821287,13.1311669 24.6194182,13.068152 24.6194182,12.9631272 C24.6194182,12.8581023 24.6402709,12.7950874 24.7242908,12.7320725 C24.7873057,12.6902148 24.8711733,12.6902148 24.9972031,12.6902148 L26.2990544,12.6902148 L26.2990544,12.060218 L24.8923305,12.060218 C24.136304,12.060218 23.8842444,12.5221751 23.8842444,12.9422744 C23.8842444,13.8658841 24.7032858,13.8240263 25.3542876,13.8451835 C25.4800129,13.8451835 25.564185,13.8660363 25.6060427,13.9081984 C25.6479005,13.9500561 25.6902148,14.0339238 25.6902148,14.1180959 C25.6902148,14.2019635 25.6480527,14.2649784 25.6060427,14.3071405 C25.5430278,14.3489983 25.4591602,14.369851 25.3331304,14.369851 L23.9682642,14.369851 L23.9682642,14.9998478 L25.3331304,14.9998478 C26.0468426,14.9998478 26.4459369,14.7060827 26.4459369,14.0762381 C26.4459369,13.7823208 26.3620693,13.5931239 26.2360395,13.4462414 L26.2360395,13.4462414 Z M23.5483171,14.3911604 L21.8898381,14.3911604 L21.8898381,13.8031736 L23.5064594,13.8031736 L23.5064594,13.2154912 L21.8898381,13.2154912 L21.8898381,12.6693621 L23.5483171,12.6693621 L23.5483171,12.0605225 L21.1968264,12.0605225 L21.1968264,15 L23.5483171,15 L23.5483171,14.3911604 Z M20.4407999,12.2075572 C20.2097452,12.0815274 19.9368329,12.0603703 19.5799007,12.0603703 L17.9632794,12.0603703 L17.9632794,14.9998478 L18.6769916,14.9998478 L18.6769916,13.9290512 L19.4330181,13.9290512 C19.6847733,13.9290512 19.8319603,13.9502083 19.9369851,14.055081 C20.0630149,14.2019635 20.0630149,14.4540231 20.0630149,14.6430678 L20.0630149,14.9998478 L20.7557221,14.9998478 L20.7557221,14.4328659 C20.7557221,14.1599536 20.7348694,14.0339238 20.6508495,13.8870412 C20.5878346,13.8028692 20.4621092,13.6979965 20.2940695,13.6349816 C20.4828098,13.5722712 20.7980365,13.3202116 20.7980365,12.8581023 C20.7978843,12.5223273 20.6718545,12.3332826 20.4407999,12.2075572 Z M16.4513785,12.0603703 L14.2046082,12.0603703 L13.301699,13.0262943 L12.4407999,12.0603703 L9.60619494,12.0603703 L9.60619494,14.9998478 L12.3989421,14.9998478 L13.3018513,14.0339238 L14.1627504,14.9998478 L15.5276166,14.9998478 L15.5276166,14.0132232 L16.4095207,14.0132232 C17.0183603,14.0132232 17.6275043,13.8451835 17.6275043,13.0262943 C17.6273521,12.22841 16.9973554,12.0603703 16.4513785,12.0603703 Z M19.873818,13.2783538 C19.7689454,13.3202116 19.6639205,13.3202116 19.5378908,13.3202116 L18.6769916,13.3413687 L18.6769916,12.6692098 L19.5378908,12.6692098 C19.6639205,12.6692098 19.7899503,12.6692098 19.873818,12.7322247 C19.9579901,12.7743869 20.0207005,12.8582545 20.0207005,12.9842843 C20.0207005,13.1103141 19.9579901,13.215339 19.873818,13.2783538 L19.873818,13.2783538 Z M16.4513785,13.4252364 L15.5274644,13.4252364 L15.5274644,12.6692098 L16.4513785,12.6692098 C16.703438,12.6692098 16.8713256,12.7743869 16.8713256,13.0262943 C16.8713256,13.2783538 16.7032858,13.4252364 16.4513785,13.4252364 Z M13.7426511,13.530109 L14.8344527,12.3754447 L14.8344527,14.7480926 L13.7426511,13.530109 Z M12.0418577,14.3911604 L10.2990544,14.3911604 L10.2990544,13.8031736 L11.852813,13.8031736 L11.852813,13.2154912 L10.2990544,13.2154912 L10.2990544,12.6693621 L12.0628627,12.6693621 L12.839742,13.5302612 L12.0418577,14.3911604 L12.0418577,14.3911604 Z M27.2438212,9.93962975 L26.2360395,9.93962975 L24.9131833,7.73486938 L24.9131833,9.93962975 L23.4856067,9.93962975 L23.2123899,9.28862802 L21.7426511,9.28862802 L21.4697388,9.93962975 L20.6506973,9.93962975 C20.3147701,9.93962975 19.873818,9.85560989 19.6220628,9.6035503 C19.3910082,9.35164292 19.2649784,9.01571567 19.2649784,8.49074374 C19.2649784,8.04979166 19.3279933,7.65084952 19.6427634,7.33592724 C19.8526608,7.10487262 20.2307502,7 20.71356,7 L21.3854145,7 L21.3854145,7.62999677 L20.71356,7.62999677 C20.4618048,7.62999677 20.3146179,7.6720067 20.1677353,7.79803649 C20.0417055,7.92406629 19.9786906,8.1549687 19.9786906,8.46989098 C19.9786906,8.78481326 20.0417055,9.01586788 20.1677353,9.16290264 C20.2726079,9.26777526 20.4618048,9.30978519 20.6505451,9.30978519 L20.9656196,9.30978519 L21.9734013,7.00015221 L23.0233452,7.00015221 L24.1991667,9.77174223 L24.1991667,7 L25.2911205,7 L26.5299568,9.03672064 L26.5299568,7 L27.243669,7 L27.243669,9.93962975 L27.2438212,9.93962975 L27.2438212,9.93962975 Z M18.9080462,7 L18.194334,7 L18.194334,9.93962975 L18.9080462,9.93962975 L18.9080462,7 L18.9080462,7 Z M17.4171503,7.1260298 C17.1860956,7 16.9343405,7 16.5774082,7 L14.9604825,7 L14.9604825,9.93962975 L15.653342,9.93962975 L15.653342,8.86868091 L16.4092163,8.86868091 C16.6612759,8.86868091 16.8293156,8.88968588 16.9341882,8.99471071 C17.060218,9.14174547 17.0390609,9.39380506 17.0390609,9.56169257 L17.0390609,9.93962975 L17.7527731,9.93962975 L17.7527731,9.35164292 C17.7527731,9.09973554 17.7319203,8.97370574 17.6270477,8.82667098 C17.5640328,8.74265112 17.438003,8.63762629 17.2911205,8.5747636 C17.4798607,8.49074374 17.7950875,8.25984132 17.7950875,7.79788428 C17.7952396,7.46195704 17.6480527,7.27291235 17.4171503,7.1260298 Z M14.4565155,9.33079016 L12.818737,9.33079016 L12.818737,8.74280333 L14.4355106,8.74280333 L14.4355106,8.13396374 L12.818737,8.13396374 L12.818737,7.6089918 L14.4565155,7.6089918 L14.4565155,7.00015221 L12.1048726,7.00015221 L12.1048726,9.93978196 L14.4565155,9.93978196 L14.4565155,9.33079016 Z M11.5799007,7 L10.4250842,7 L9.56418501,8.99471071 L8.64027093,7 L7.50645941,7 L7.50645941,9.77159002 L6.30963298,7 L5.25984132,7 L4,9.93962975 L4.75587435,9.93962975 L5.0287867,9.28862802 L6.49852547,9.28862802 L6.77143781,9.93962975 L8.19931886,9.93962975 L8.19931886,7.62999677 L9.22810556,9.93962975 L9.83694515,9.93962975 L10.8658841,7.62999677 L10.8658841,9.93962975 L11.5797485,9.93962975 L11.5797485,7 L11.5799007,7 Z M22.9606347,8.65878346 L22.4775205,7.50396697 L21.9947107,8.65878346 L22.9606347,8.65878346 Z M16.8713256,8.19697863 C16.7664529,8.25999353 16.6614281,8.25999353 16.5143933,8.25999353 L15.653342,8.25999353 L15.653342,7.60914401 L16.5142411,7.60914401 C16.6402709,7.60914401 16.7870013,7.60914401 16.8711733,7.65115394 C16.955041,7.71416884 16.9972031,7.7981887 16.9972031,7.92406629 C16.9972031,8.04994387 16.9551932,8.15481649 16.8713256,8.19697863 L16.8713256,8.19697863 Z M5.28069408,8.65878346 L5.76365608,7.50396697 L6.24661809,8.65878346 L5.28069408,8.65878346 L5.28069408,8.65878346 Z" id="Logo" fill="#0077A6" fill-rule="nonzero"></path>
                </g>
            </g>
        </g>
    </g>
</svg>