<?xml version="1.0" encoding="UTF-8"?>
<svg width="18px" height="18px" viewBox="0 0 18 18" version="1.1" xmlns="http://www.w3.org/2000/svg" xmlns:xlink="http://www.w3.org/1999/xlink">
    <g id="Zipy-Demo-App" stroke="none" stroke-width="1" fill="none" fill-rule="evenodd">
        <g id="ZipyDemo_Web-Ecom-1" transform="translate(-1056.000000, -2088.000000)" fill="#969696">
            <g id="Footer" transform="translate(0.000000, 1997.000000)">
                <g id="4.-Icons-/-Twitter" transform="translate(1056.000000, 91.000000)">
                    <path d="M16.5,4.443125 C15.948125,4.688125 15.355,4.853125 14.7325,4.9275 C15.368125,4.546875 15.85625,3.94375 16.085625,3.225 C15.49125,3.5775 14.8325,3.83375 14.13125,3.971875 C13.570625,3.37375 12.77,3 11.885,3 C9.898125,3 8.438125,4.85375 8.886875,6.778125 C6.33,6.65 4.0625,5.425 2.544375,3.563125 C1.738125,4.94625 2.12625,6.755625 3.49625,7.671875 C2.9925,7.655625 2.5175,7.5175 2.103125,7.286875 C2.069375,8.7125 3.09125,10.04625 4.57125,10.343125 C4.138125,10.460625 3.66375,10.488125 3.18125,10.395625 C3.5725,11.618125 4.70875,12.5075 6.05625,12.5325 C4.7625,13.546875 3.1325,14 1.5,13.8075 C2.861875,14.680625 4.48,15.19 6.2175,15.19 C11.93125,15.19 15.159375,10.364375 14.964375,6.03625 C15.565625,5.601875 16.0875,5.06 16.5,4.443125 Z" id="🔹-Icon-Color"></path>
                </g>
            </g>
        </g>
    </g>
</svg>