<?xml version="1.0" encoding="UTF-8"?>
<svg width="18px" height="18px" viewBox="0 0 18 18" version="1.1" xmlns="http://www.w3.org/2000/svg" xmlns:xlink="http://www.w3.org/1999/xlink">
    <g id="Zipy-Demo-App" stroke="none" stroke-width="1" fill="none" fill-rule="evenodd">
        <g id="ZipyDemo_Web-Ecom-1" transform="translate(-1056.000000, -2061.000000)" fill="#969696">
            <g id="Footer" transform="translate(0.000000, 1997.000000)">
                <g id="4.-Icons-/-Twitter" transform="translate(1056.000000, 64.000000)">
                    <path d="M11.0317269,16.5 L11.0317269,11.3688957 L12.8007687,11.3688957 L13.0655579,9.3690184 L11.0317269,9.3690184 L11.0317269,8.09190184 C11.0317269,7.51325153 11.1967241,7.11846626 12.0494929,7.11846626 L13.137,7.11791411 L13.137,5.32895706 C12.9487558,5.30466258 12.3035092,5.25 11.5522334,5.25 C9.98390985,5.25 8.91057777,6.18202454 8.91057777,7.89368098 L8.91057777,9.36846626 L7.137,9.36846626 L7.137,11.3683436 L8.91057777,11.3683436 L8.91057777,16.5 L5.5,16.5 C3.290861,16.5 1.5,14.709139 1.5,12.5 L1.5,5.5 C1.5,3.290861 3.290861,1.5 5.5,1.5 L12.5,1.5 C14.709139,1.5 16.5,3.290861 16.5,5.5 L16.5,12.5 C16.5,14.709139 14.709139,16.5 12.5,16.5 L11.0317269,16.5 Z" id="🔹-Icon-Color-2"></path>
                </g>
            </g>
        </g>
    </g>
</svg>