<?xml version="1.0" encoding="UTF-8"?>
<svg width="34px" height="22px" viewBox="0 0 34 22" version="1.1" xmlns="http://www.w3.org/2000/svg" xmlns:xlink="http://www.w3.org/1999/xlink">
    <g id="Zipy-Demo-App" stroke="none" stroke-width="1" fill="none" fill-rule="evenodd">
        <g id="ZipyDemo_Web-Ecom-1" transform="translate(-1167.000000, -2254.000000)">
            <g id="Footer" transform="translate(0.000000, 1997.000000)">
                <g id="Logo-/-Payment-/-Small-/-Visa" transform="translate(1167.000000, 257.000000)">
                    <path d="M28,0.5 C29.5187831,0.5 30.8937831,1.11560847 31.8890873,2.1109127 C32.8843915,3.10621694 33.5,4.48121694 33.5,6 L33.5,6 L33.5,16 C33.5,17.5187831 32.8843915,18.8937831 31.8890873,19.8890873 C30.8937831,20.8843915 29.5187831,21.5 28,21.5 L28,21.5 L6,21.5 C4.48121694,21.5 3.10621694,20.8843915 2.1109127,19.8890873 C1.11560847,18.8937831 0.5,17.5187831 0.5,16 L0.5,16 L0.5,6 C0.5,4.48121694 1.11560847,3.10621694 2.1109127,2.1109127 C3.10621694,1.11560847 4.48121694,0.5 6,0.5 L6,0.5 Z" id="◼️-Background" stroke="#E4E4E4" fill="#FFFFFF"></path>
                    <g id="Logo" transform="translate(12.000000, 5.000000)" fill-rule="nonzero">
                        <path d="M8.51124142,0.908068312 C7.96514053,0.27503088 6.97797323,0.00363232343 5.71509042,0.00363232343 L2.04985753,0.00363232343 C1.79172961,0.00363232343 1.57192011,0.194521861 1.53146536,0.45379759 L0.00533010772,10.2976054 C-0.0250044759,10.4917177 0.122788437,10.667495 0.316239994,10.667495 L2.57902749,10.667495 L3.14731103,7.00164152 L3.12967465,7.11643485 C3.17015995,6.85731281 3.38806729,6.66618987 3.64610721,6.66618987 L4.72137806,6.66618987 C6.83374678,6.66618987 8.48776543,5.79360106 8.97092402,3.26938323 C8.98526828,3.1947277 8.99769213,3.12206511 9.00843073,3.0510766 C8.94744803,3.01823295 8.94744803,3.01823295 9.00843073,3.0510766 C9.15230445,2.11810171 9.00745093,1.48303148 8.51124142,0.908068312" id="Path" fill="#27346A"></path>
                        <path d="M4.01314,2.71498721 C4.0750011,2.68503023 4.14266104,2.66950585 4.21117702,2.66954818 L7.08465376,2.66954818 C7.42491843,2.66954818 7.742295,2.6920684 8.03231556,2.73954023 C8.11347053,2.75270017 8.19420546,2.76841206 8.27440435,2.78665333 C8.38807416,2.81216295 8.50043155,2.84338408 8.61106336,2.88020193 C8.75364374,2.92863037 8.88642613,2.98503057 9.00846992,3.0510766 C9.15230445,2.11774298 9.00745093,1.48303148 8.51124142,0.908068312 C7.96482699,0.27503088 6.97797323,0.00363232343 5.71509042,0.00363232343 L2.04954399,0.00363232343 C1.79146488,0.00363232343 1.57191147,0.194715402 1.53146536,0.45379759 L0.00533010772,10.2972467 C-0.0250044759,10.4916779 0.122788437,10.667216 0.315926458,10.667216 L2.57902749,10.667216 L3.75803948,3.0633531 C3.78157243,2.91163363 3.87695304,2.78138163 4.01314,2.71498721 Z" id="Path" fill="#27346A"></path>
                        <path d="M8.97092402,3.26938323 C8.48776543,5.79324233 6.83378597,6.66618987 4.72137806,6.66618987 L3.64579368,6.66618987 C3.38775376,6.66618987 3.16980722,6.85731281 3.12971384,7.11643485 L2.42272992,11.6744877 C2.39631453,11.8443659 2.52549126,11.9983006 2.69448703,11.9983006 L4.60196013,11.9983006 C4.82768974,11.9983006 5.0198606,11.8312453 5.05513687,11.6044957 L5.07371386,11.5056458 L5.43322179,9.18841476 L5.45638424,9.06034844 C5.49165818,8.83361372 5.68380702,8.66662434 5.90952178,8.66654351 L6.19499608,8.66654351 C8.04277982,8.66654351 9.48962972,7.90308809 9.91243268,5.69507011 C10.0889141,4.77233893 9.99759682,4.00194808 9.5307421,3.46082504 C9.38914151,3.29692566 9.21328715,3.16156518 9.00843073,3.0510766 C8.9973394,3.12242384 8.98530747,3.1947277 8.97092402,3.26938323 L8.97092402,3.26938323 Z" id="Path" fill="#2790C3"></path>
                        <path d="M8.50277595,2.84604294 C8.42744103,2.82367001 8.35139234,2.80386243 8.27475708,2.78665333 C8.19451614,2.76871038 8.11378685,2.75310592 8.03266829,2.7398591 C7.74233419,2.6920684 7.42519278,2.66950713 7.08461457,2.66950713 L4.21149055,2.66950713 C4.14292256,2.66935014 4.07521212,2.68500876 4.01345354,2.71530608 C3.87710028,2.78150351 3.78163553,2.91185038 3.75831382,3.06367198 L3.14762457,7.00164152 L3.12998818,7.11643485 C3.17015995,6.85731281 3.38806729,6.66618987 3.64614641,6.66618987 L4.72173079,6.66618987 C6.83409951,6.66618987 8.48807896,5.79360106 8.97123755,3.26938323 C8.985621,3.1947277 8.99769213,3.12238399 9.00878346,3.0510766 C8.88642613,2.9853893 8.75399647,2.92863037 8.6113769,2.8805208 C8.57538934,2.86838764 8.53919659,2.85689328 8.50281514,2.84604294" id="Path" fill="#1F264F"></path>
                    </g>
                </g>
            </g>
        </g>
    </g>
</svg>