<?xml version="1.0" encoding="UTF-8"?>
<svg width="123px" height="42px" viewBox="0 0 123 42" version="1.1" xmlns="http://www.w3.org/2000/svg" xmlns:xlink="http://www.w3.org/1999/xlink">
    <defs>
        <rect id="path-1" x="0" y="0" width="122.684211" height="42" rx="6"></rect>
    </defs>
    <g id="Zipy-Demo-App" stroke="none" stroke-width="1" fill="none" fill-rule="evenodd">
        <g id="ZipyDemo_Web-Ecom-1" transform="translate(-1152.000000, -1898.000000)">
            <g id="app" transform="translate(165.000000, 1898.000000)">
                <g id="Group" transform="translate(987.000000, 0.000000)">
                    <mask id="mask-2" fill="white">
                        <use xlink:href="#path-1"></use>
                    </mask>
                    <use id="◼️-Background" fill="#1C1C1C" xlink:href="#path-1"></use>
                    <path d="M65.3162286,22.0585833 C66.2212422,22.0585833 66.9030102,22.4098998 67.401515,22.9490079 L67.401515,22.9490079 L67.401515,22.2917375 L69.0229319,22.2917375 L69.0229319,29.2646567 C69.0229319,32.0043401 67.4476954,33.3103448 65.3807596,33.3103448 C63.4912536,33.3103448 62.4298344,32.144574 61.902406,31.0252633 L61.902406,31.0252633 L63.3888061,30.401771 C63.5946733,30.9018574 64.1872403,31.783624 65.3684853,31.783624 C66.5912927,31.783624 67.4013935,30.9814859 67.4013935,29.6426786 L67.4013935,29.6426786 L67.4013935,28.8774891 C66.9687564,29.3813557 66.3827519,29.8204708 65.2803781,29.8204708 C63.497816,29.8204708 61.6034489,28.2715565 61.6034489,25.9357469 C61.6034489,23.8852828 63.2376262,22.0584614 65.3162286,22.0584614 Z M106.047552,22.0493157 L108.279077,27.1446552 L110.511127,22.0493157 L112.371588,22.0493157 L107.439647,33.3103448 L105.579307,33.3103448 L107.349077,29.2686552 L104.187212,22.0493157 L106.047552,22.0493157 Z M20.3781174,24.3226907 L22.9035756,26.8529988 L12.2513458,32.7030709 C12.1708947,32.7481896 12.0933603,32.783553 12.0191071,32.8115998 L12.0191071,32.8115998 L20.3781174,24.3226907 Z M11.2550652,15.1822426 L20.0132925,23.9572289 L11.2971136,32.8091609 C11.042757,32.6469773 10.9064034,32.2957828 10.9040944,31.8421565 C10.9020221,31.4300227 10.8853614,28.115618 10.8678399,24.6308359 L10.8619864,23.466679 C10.8457426,20.2362006 10.8300684,17.1198908 10.8258614,16.286415 L10.8250774,16.1313215 L10.8250774,16.1313215 C10.8226712,15.6345276 11.0027746,15.3315003 11.2550652,15.1822426 Z M38.139085,17.7487676 C40.4533414,17.7487676 41.8664391,18.97064 42.2122305,19.3077082 L42.2746431,19.3705377 C42.2885598,19.3850991 42.2955607,19.3929191 42.2955607,19.3929191 L42.2955607,19.3929191 L41.1487079,20.5845417 C41.1487079,20.5845417 40.0545978,19.3966993 38.1976611,19.3966993 C35.7910566,19.3966993 33.8715334,21.3124168 33.8715334,23.799923 C33.8715334,26.3532782 35.8851187,28.1752219 38.1926785,28.1752219 C39.9962648,28.1752219 41.907038,27.1923649 42.1005095,24.8878945 L42.1005095,24.8878945 L38.1861161,24.8878945 L38.1861161,23.2444747 L43.7052771,23.2439869 C43.7052771,23.2439869 43.7059708,23.2467602 43.7072426,23.2522444 L43.7208857,23.3171791 C43.7489813,23.4618754 43.8051725,23.8160194 43.8051725,24.3340314 C43.8051725,27.608189 41.4473004,29.8224219 38.2262201,29.8224219 C34.5637527,29.8224219 32.076211,26.8347074 32.076211,23.7706568 C32.076211,20.6436839 34.7207659,17.7486457 38.139085,17.7487676 Z M76.5732997,22.0493157 C78.1198558,22.0493157 79.2883405,23.0841202 79.7892759,24.3231785 L79.7892759,24.3231785 L80.0585803,24.9559384 L74.8728901,27.1149314 C75.1826631,27.6935488 75.6826263,28.2909454 76.7696878,28.2910673 C77.737531,28.2910673 78.3175806,27.7630561 78.664541,27.2227286 L78.664541,27.2227286 L80.001341,28.1153481 C79.4019685,28.920169 78.3977886,29.8182759 76.7615454,29.8182759 C74.8010675,29.8182759 72.9660057,28.3687447 72.9660057,25.9245281 C72.9660057,23.6145703 74.6123357,22.0490718 76.5731782,22.0490718 Z M56.9443364,22.0543153 C58.8061342,22.0543153 60.8248237,23.3780018 60.8248237,25.948185 C60.8248237,28.1905866 59.0892928,29.8153493 56.9709509,29.8153493 C54.6307002,29.8153493 53.056436,28.0057217 53.056436,25.9030663 C53.056436,23.8308964 54.6795542,22.0543153 56.9443364,22.0543153 Z M48.3972019,22.0543153 C50.2587567,22.0543153 52.2775677,23.3780018 52.2775677,25.948185 C52.2775677,28.1905866 50.5420367,29.8153493 48.4235734,29.8153493 C46.0834442,29.8153493 44.5093015,28.0057217 44.5093015,25.9030663 C44.5093015,23.8308964 46.1322982,22.0543153 48.3972019,22.0543153 Z M96.4156649,23.2921542 C98.4440765,20.233591 103.804766,21.231447 103.538257,25.4741943 L103.538257,25.4741943 L103.538257,29.5879264 L101.83493,29.5879264 L101.83493,28.6646993 C101.442397,29.1333245 100.963337,29.4961036 100.35485,29.6625552 C99.2739863,29.958144 97.958332,29.8415669 97.1569812,28.9765064 C96.6427993,28.421302 96.4783729,27.5102691 96.5747441,26.7711753 C96.7530246,25.4034676 97.8749643,24.568405 99.1853929,24.4353657 C100.024903,24.3501278 100.943771,24.5140186 101.79434,24.7401001 C101.608282,22.8754765 98.778155,22.4751391 97.7863709,24.2150155 L97.7863709,24.2150155 Z M94.8637616,18.1500805 L94.8637616,29.5879264 L93.1604354,29.5879264 L93.1604354,18.1500805 L94.8637616,18.1500805 Z M72.0265999,18.1500805 L72.0265999,29.5879264 L70.3232737,29.5879264 L70.3232737,18.1500805 L72.0265999,18.1500805 Z M88.24806,18.1499586 C90.2453607,18.1499586 91.8794164,19.7895982 91.8794164,21.7937241 C91.8794164,23.797728 90.2453607,25.4373676 88.24806,25.4373676 L85.8310774,25.4366552 L85.8311257,29.5879264 L84.1277994,29.5879264 L84.1277994,18.1500805 L88.24806,18.1499586 Z M65.4666794,23.5795728 C64.3758506,23.5795728 63.3048307,24.468656 63.3048307,25.9584282 C63.3048307,27.3922287 64.3361112,28.2950914 65.4441968,28.2950914 C66.4881161,28.2950914 67.5325214,27.4597849 67.5325214,25.944039 C67.5325214,24.4528034 66.4859286,23.5795728 65.4666794,23.5795728 Z M56.966819,23.5785973 C55.7153311,23.5785973 54.7538074,24.5824284 54.7538074,25.9266012 C54.7538074,27.3002841 55.7274839,28.2921648 56.9615933,28.2921648 C58.0849914,28.2921648 59.1359592,27.3628406 59.1359592,25.9379418 C59.1359592,24.4820697 58.0804949,23.5784753 56.966819,23.5784753 Z M48.419563,23.5785973 C47.1681967,23.5785973 46.2064298,24.5824284 46.2064298,25.9266012 C46.2064298,27.3002841 47.1802279,28.2921648 48.4144588,28.2921648 C49.5377354,28.2921648 50.5887032,27.3628406 50.5887032,25.9379418 C50.5887032,24.4820697 49.5333604,23.5784753 48.419563,23.5784753 Z M100.417315,25.9408684 C97.4903305,25.4993145 97.9803285,28.7104278 99.949921,28.1716856 C100.882157,27.9169476 101.617032,27.2327279 101.83493,26.2815759 C101.3583,26.1267089 100.91983,26.0017178 100.417315,25.9408684 Z M23.3723063,21.2820531 L26.9967356,23.2659366 C27.8895965,23.7544384 27.432897,24.3656145 26.9967356,24.6051097 L23.3749799,26.5943586 L20.7403902,23.9546681 L23.3723063,21.2820531 Z M76.6407473,23.5416487 C75.5212381,23.5416487 74.4595759,24.6983958 74.6088114,25.8228281 L74.6088114,25.8228281 L78.0718525,24.3704922 C77.8558985,23.9184512 77.3474284,23.5416487 76.6408689,23.5416487 Z M88.24806,19.8591055 L85.8311257,19.8591055 L85.8311257,23.7282208 L88.24806,23.7282208 C89.3052258,23.7282208 90.1762117,22.8543804 90.1762117,21.7937241 C90.1762117,20.7329458 89.3052258,19.8591055 88.24806,19.8591055 Z M11.8797154,15.0768843 C12.0084127,15.0938343 12.1375962,15.1317584 12.2513458,15.1940711 L12.2513458,15.1940711 L22.9013881,21.0242666 L20.3755653,23.5892063 Z M35.1797744,8.68965517 C36.4014881,8.68965517 37.0713464,9.43789469 37.0713464,9.43789469 L37.0713464,9.43789469 L36.5495083,9.98017323 L36.5495083,9.98017323 L36.5233107,9.9539114 C36.410561,9.84566138 35.9389148,9.43972383 35.2063889,9.43972383 C34.1111851,9.43972383 33.2376471,10.3114912 33.2376471,11.4434839 C33.2376471,12.6055964 34.1540843,13.4346839 35.2042014,13.4346839 C36.0249966,13.4346839 36.8945242,12.9873986 36.9826315,11.9385707 L36.9826315,11.9385707 L35.2011632,11.9385707 L35.2011632,11.190697 L37.7120774,11.1906552 L37.7148471,11.1989962 L37.7273084,11.2646423 C37.7406597,11.3455031 37.7584616,11.4901574 37.7584616,11.6866374 C37.7584616,13.1766534 36.6853758,14.1841428 35.2193923,14.1841428 C33.5527673,14.1841428 32.4207408,12.8246053 32.4207408,11.4300702 C32.4207408,10.0071225 33.6241038,8.68965517 35.1797744,8.68965517 Z M57.4588829,8.68965517 C59.0145535,8.68965517 60.2180381,10.0070006 60.2180381,11.4300702 C60.2180381,12.8133866 59.103876,14.1623151 57.4588829,14.1836551 C55.8138898,14.1623151 54.6997277,12.8133866 54.6997277,11.4300702 C54.6997277,10.0070006 55.9032123,8.68965517 57.4588829,8.68965517 Z M48.7542491,8.87232512 L48.7542491,14.077565 L47.9791481,14.077565 L47.9791481,8.87232512 L48.7542491,8.87232512 Z M45.6856855,8.87232512 L45.6856855,9.65007474 L44.4132949,9.65007474 L44.4132949,14.077565 L43.6380725,14.077565 L43.6380725,9.65007474 L42.365682,9.65007474 L42.365682,8.87232512 L42.365682,8.87232512 L45.6856855,8.87232512 Z M41.5484111,8.87232512 L41.5484111,9.65007474 L39.3508334,9.65007474 L39.3508334,11.0860703 L41.2838462,11.0860703 L41.2838462,11.8638199 L39.3508334,11.8638199 L39.3508334,13.2996935 L41.5484111,13.2996935 L41.5484111,14.077565 L38.575611,14.077565 L38.575611,14.077565 L38.575611,8.87232512 L41.5484111,8.87232512 Z M52.7052222,8.87232512 L52.7052222,9.65007474 L51.4328316,9.65007474 L51.4328316,14.077565 L50.6577307,14.077565 L50.6577307,9.65007474 L49.3853402,9.65007474 L49.3853402,8.87232512 L49.3853402,8.87232512 L52.7052222,8.87232512 Z M61.7675108,8.87232512 L64.2557816,12.6619339 L64.2557816,8.87232512 L65.0310041,8.87232512 L65.0310041,14.077565 L64.2571184,14.077565 L61.7675108,10.2860052 L61.7675108,14.077565 L60.9922883,14.077565 L60.9922883,8.87232512 L61.7675108,8.87232512 Z M57.4588829,9.43996771 C56.3761964,9.45399111 55.5167556,10.3207588 55.5167556,11.4434839 C55.5167556,12.5965727 56.418974,13.4215141 57.4588829,13.4343181 C58.4987918,13.4215141 59.4010102,12.5965727 59.4010102,11.4434839 C59.4010102,10.3207588 58.5416909,9.45399111 57.4588829,9.43996771 Z" id="Logo" fill="#FFFFFF" mask="url(#mask-2)"></path>
                </g>
            </g>
        </g>
    </g>
</svg>