<?xml version="1.0" encoding="UTF-8"?>
<svg width="44px" height="44px" viewBox="0 0 44 44" version="1.1" xmlns="http://www.w3.org/2000/svg" xmlns:xlink="http://www.w3.org/1999/xlink">
    <g id="Zipy-Demo-App" stroke="none" stroke-width="1" fill="none" fill-rule="evenodd">
        <g id="ZipyDemo_Web-Ecom-1" transform="translate(-925.000000, -528.000000)">
            <g id="features" transform="translate(165.000000, 508.000000)">
                <g id="-Round-/-Action-/-https" transform="translate(760.000000, 20.000000)">
                    <polygon id="Path" points="0 0 44 0 44 44 0 44"></polygon>
                    <path d="M33,14.6666667 L31.1666667,14.6666667 L31.1666667,11 C31.1666667,5.94 27.06,1.83333333 22,1.83333333 C16.94,1.83333333 12.8333333,5.94 12.8333333,11 L12.8333333,14.6666667 L11,14.6666667 C8.98333333,14.6666667 7.33333333,16.3166667 7.33333333,18.3333333 L7.33333333,36.6666667 C7.33333333,38.6833333 8.98333333,40.3333333 11,40.3333333 L33,40.3333333 C35.0166667,40.3333333 36.6666667,38.6833333 36.6666667,36.6666667 L36.6666667,18.3333333 C36.6666667,16.3166667 35.0166667,14.6666667 33,14.6666667 Z M22,31.1666667 C19.9833333,31.1666667 18.3333333,29.5166667 18.3333333,27.5 C18.3333333,25.4833333 19.9833333,23.8333333 22,23.8333333 C24.0166667,23.8333333 25.6666667,25.4833333 25.6666667,27.5 C25.6666667,29.5166667 24.0166667,31.1666667 22,31.1666667 Z M16.5,14.6666667 L16.5,11 C16.5,7.95666667 18.9566667,5.5 22,5.5 C25.0433333,5.5 27.5,7.95666667 27.5,11 L27.5,14.6666667 L16.5,14.6666667 Z" id="🔹Icon-Color" fill="#007BFF"></path>
                </g>
            </g>
        </g>
    </g>
</svg>