<?xml version="1.0" encoding="UTF-8"?>
<svg width="18px" height="19px" viewBox="0 0 18 19" version="1.1" xmlns="http://www.w3.org/2000/svg" xmlns:xlink="http://www.w3.org/1999/xlink">
    <g id="Zipy-Demo-App" stroke="none" stroke-width="1" fill="none" fill-rule="evenodd">
        <g id="ZipyDemo_Web-Ecom-2" transform="translate(-967.000000, -913.000000)" fill="#007BFF">
            <g id="Item" transform="translate(165.000000, 346.000000)">
                <g id="1.-Buttons-/-2.-Medium-/-Text" transform="translate(692.000000, 557.568542)">
                    <g id="🔶-Icon" transform="translate(110.000000, 10.000000)">
                        <path d="M6,13.5 C5.175,13.5 4.5075,14.175 4.5075,15 C4.5075,15.825 5.175,16.5 6,16.5 C6.825,16.5 7.5,15.825 7.5,15 C7.5,14.175 6.825,13.5 6,13.5 L6,13.5 Z M1.5,1.5 L1.5,3 L3,3 L5.7,8.6925 L4.6875,10.53 C4.5675,10.74 4.5,10.9875 4.5,11.25 C4.5,12.075 5.175,12.75 6,12.75 L15,12.75 L15,11.25 L6.315,11.25 C6.21,11.25 6.1275,11.1675 6.1275,11.0625 L6.15,10.9725 L6.825,9.75 L12.4125,9.75 C12.975,9.75 13.47,9.4425 13.725,8.9775 L16.41,4.11 C16.47,4.005 16.5,3.8775 16.5,3.75 C16.5,3.3375 16.1625,3 15.75,3 L4.6575,3 L3.9525,1.5 L1.5,1.5 L1.5,1.5 Z M13.5,13.5 C12.675,13.5 12.0075,14.175 12.0075,15 C12.0075,15.825 12.675,16.5 13.5,16.5 C14.325,16.5 15,15.825 15,15 C15,14.175 14.325,13.5 13.5,13.5 L13.5,13.5 Z" id="🔹-Icon-Color"></path>
                    </g>
                </g>
            </g>
        </g>
    </g>
</svg>