<?xml version="1.0" encoding="UTF-8"?>
<svg width="18px" height="19px" viewBox="0 0 18 19" version="1.1" xmlns="http://www.w3.org/2000/svg" xmlns:xlink="http://www.w3.org/1999/xlink">
    <g id="Zipy-Demo-App" stroke="none" stroke-width="1" fill="none" fill-rule="evenodd">
        <g id="ZipyDemo_Web-Ecom-2" transform="translate(-911.000000, -493.000000)" fill="#00B517">
            <g id="Item" transform="translate(165.000000, 346.000000)">
                <g id="Info" transform="translate(570.000000, 147.568542)">
                    <g id="4.-Icons-/-Cart-#1" transform="translate(176.000000, 0.000000)">
                        <path d="M14.25,2.25 L11.115,2.25 C10.8,1.38 9.975,0.75 9,0.75 C8.025,0.75 7.2,1.38 6.885,2.25 L3.75,2.25 C2.925,2.25 2.25,2.925 2.25,3.75 L2.25,14.25 C2.25,15.075 2.925,15.75 3.75,15.75 L14.25,15.75 C15.075,15.75 15.75,15.075 15.75,14.25 L15.75,3.75 C15.75,2.925 15.075,2.25 14.25,2.25 Z M9,2.25 C9.4125,2.25 9.75,2.5875 9.75,3 C9.75,3.4125 9.4125,3.75 9,3.75 C8.5875,3.75 8.25,3.4125 8.25,3 C8.25,2.5875 8.5875,2.25 9,2.25 Z M7.5,12.75 L4.5,9.75 L5.5575,8.6925 L7.5,10.6275 L12.4425,5.685 L13.5,6.75 L7.5,12.75 Z" id="🔹-Icon-Color"></path>
                    </g>
                </g>
            </g>
        </g>
    </g>
</svg>