<?xml version="1.0" encoding="UTF-8"?>
<svg width="22px" height="22px" viewBox="0 0 22 22" version="1.1" xmlns="http://www.w3.org/2000/svg" xmlns:xlink="http://www.w3.org/1999/xlink">
    <g id="Zipy-Demo-App" stroke="none" stroke-width="1" fill="none" fill-rule="evenodd">
        <g id="ZipyDemo_Web-Ecom-1" transform="translate(-1007.000000, -72.000000)" fill="#969696">
            <g id="header-mains" transform="translate(0.000000, 40.000000)">
                <g id="widgets-header" transform="translate(994.000000, 14.000000)">
                    <g id="1.-Buttons-/-5.-Round-/-3.-Large-/-Icon" transform="translate(0.000000, 5.000000)">
                        <g id="🔶-Icon" transform="translate(13.000000, 13.000000)">
                            <path d="M7.33333333,16.5 C6.325,16.5 5.50916667,17.325 5.50916667,18.3333333 C5.50916667,19.3416667 6.325,20.1666667 7.33333333,20.1666667 C8.34166667,20.1666667 9.16666667,19.3416667 9.16666667,18.3333333 C9.16666667,17.325 8.34166667,16.5 7.33333333,16.5 L7.33333333,16.5 Z M1.83333333,1.83333333 L1.83333333,3.66666667 L3.66666667,3.66666667 L6.96666667,10.6241667 L5.72916667,12.87 C5.5825,13.1266667 5.5,13.4291667 5.5,13.75 C5.5,14.7583333 6.325,15.5833333 7.33333333,15.5833333 L18.3333333,15.5833333 L18.3333333,13.75 L7.71833333,13.75 C7.59,13.75 7.48916667,13.6491667 7.48916667,13.5208333 L7.51666667,13.4108333 L8.34166667,11.9166667 L15.1708333,11.9166667 C15.8583333,11.9166667 16.4633333,11.5408333 16.775,10.9725 L20.0566667,5.02333333 C20.13,4.895 20.1666667,4.73916667 20.1666667,4.58333333 C20.1666667,4.07916667 19.7541667,3.66666667 19.25,3.66666667 L5.6925,3.66666667 L4.83083333,1.83333333 L1.83333333,1.83333333 L1.83333333,1.83333333 Z M16.5,16.5 C15.4916667,16.5 14.6758333,17.325 14.6758333,18.3333333 C14.6758333,19.3416667 15.4916667,20.1666667 16.5,20.1666667 C17.5083333,20.1666667 18.3333333,19.3416667 18.3333333,18.3333333 C18.3333333,17.325 17.5083333,16.5 16.5,16.5 L16.5,16.5 Z" id="🔹-Icon-Color"></path>
                        </g>
                    </g>
                </g>
            </g>
        </g>
    </g>
</svg>