<?xml version="1.0" encoding="UTF-8"?>
<svg width="44px" height="44px" viewBox="0 0 44 44" version="1.1" xmlns="http://www.w3.org/2000/svg" xmlns:xlink="http://www.w3.org/1999/xlink">
    <g id="Zipy-Demo-App" stroke="none" stroke-width="1" fill="none" fill-rule="evenodd">
        <g id="ZipyDemo_Web-Ecom-1" transform="translate(-185.000000, -528.000000)">
            <g id="features" transform="translate(165.000000, 508.000000)">
                <g id="-Round-/-Maps-/-local_shipping" transform="translate(20.000000, 20.000000)">
                    <polygon id="Path" points="0 0 44 0 44 44 0 44"></polygon>
                    <path d="M35.75,14.6666667 L31.1666667,14.6666667 L31.1666667,11 C31.1666667,8.98333333 29.5166667,7.33333333 27.5,7.33333333 L5.5,7.33333333 C3.48333333,7.33333333 1.83333333,8.98333333 1.83333333,11 L1.83333333,27.5 C1.83333333,29.5166667 3.48333333,31.1666667 5.5,31.1666667 C5.5,34.21 7.95666667,36.6666667 11,36.6666667 C14.0433333,36.6666667 16.5,34.21 16.5,31.1666667 L27.5,31.1666667 C27.5,34.21 29.9566667,36.6666667 33,36.6666667 C36.0433333,36.6666667 38.5,34.21 38.5,31.1666667 L40.3333333,31.1666667 C41.3416667,31.1666667 42.1666667,30.3416667 42.1666667,29.3333333 L42.1666667,23.2283333 C42.1666667,22.44 41.91,21.67 41.4333333,21.0283333 L37.2166667,15.4 C36.8683333,14.9416667 36.3183333,14.6666667 35.75,14.6666667 Z M11,33 C9.99166667,33 9.16666667,32.175 9.16666667,31.1666667 C9.16666667,30.1583333 9.99166667,29.3333333 11,29.3333333 C12.0083333,29.3333333 12.8333333,30.1583333 12.8333333,31.1666667 C12.8333333,32.175 12.0083333,33 11,33 Z M35.75,17.4166667 L39.3433333,22 L31.1666667,22 L31.1666667,17.4166667 L35.75,17.4166667 Z M33,33 C31.9916667,33 31.1666667,32.175 31.1666667,31.1666667 C31.1666667,30.1583333 31.9916667,29.3333333 33,29.3333333 C34.0083333,29.3333333 34.8333333,30.1583333 34.8333333,31.1666667 C34.8333333,32.175 34.0083333,33 33,33 Z" id="🔹-Icon-Color" fill="#007BFF"></path>
                </g>
            </g>
        </g>
    </g>
</svg>