<?xml version="1.0" encoding="UTF-8"?>
<svg width="20px" height="20px" viewBox="0 0 20 20" version="1.1" xmlns="http://www.w3.org/2000/svg" xmlns:xlink="http://www.w3.org/1999/xlink">
    <g id="Zipy-Demo-App" stroke="none" stroke-width="1" fill="none" fill-rule="evenodd" opacity="0.8">
        <g id="ZipyDemo_Web-Ecom-1" transform="translate(-185.000000, -10.000000)" fill="#FFFFFF">
            <g id="4.-Icons-/-Twitter" transform="translate(185.000000, 10.000000)">
                <path d="M18.3333333,4.93680556 C17.7201389,5.20902778 17.0611111,5.39236111 16.3694444,5.475 C17.0756944,5.05208333 17.6180556,4.38194444 17.8729167,3.58333333 C17.2125,3.975 16.4805556,4.25972222 15.7013889,4.41319444 C15.0784722,3.74861111 14.1888889,3.33333333 13.2055556,3.33333333 C10.9979167,3.33333333 9.37569444,5.39305556 9.87430556,7.53125 C7.03333333,7.38888889 4.51388889,6.02777778 2.82708333,3.95902778 C1.93125,5.49583333 2.3625,7.50625 3.88472222,8.52430556 C3.325,8.50625 2.79722222,8.35277778 2.33680556,8.09652778 C2.29930556,9.68055556 3.43472222,11.1625 5.07916667,11.4923611 C4.59791667,11.6229167 4.07083333,11.6534722 3.53472222,11.5506944 C3.96944444,12.9090278 5.23194444,13.8972222 6.72916667,13.925 C5.29166667,15.0520833 3.48055556,15.5555556 1.66666667,15.3416667 C3.17986111,16.3118056 4.97777778,16.8777778 6.90833333,16.8777778 C13.2569444,16.8777778 16.84375,11.5159722 16.6270833,6.70694444 C17.2951389,6.22430556 17.875,5.62222222 18.3333333,4.93680556 Z" id="🔹-Icon-Color"></path>
            </g>
        </g>
    </g>
</svg>