<?xml version="1.0" encoding="UTF-8"?>
<svg width="22px" height="22px" viewBox="0 0 22 22" version="1.1" xmlns="http://www.w3.org/2000/svg" xmlns:xlink="http://www.w3.org/1999/xlink">
    <g id="Zipy-Demo-App" stroke="none" stroke-width="1" fill="none" fill-rule="evenodd">
        <g id="ZipyDemo_Web-Ecom-1" transform="translate(-1123.000000, -72.000000)" fill="#969696">
            <g id="header-mains" transform="translate(0.000000, 40.000000)">
                <g id="widgets-header" transform="translate(994.000000, 14.000000)">
                    <g id="1.-Buttons-/-5.-Round-/-3.-Large-/-Icon" transform="translate(116.000000, 5.000000)">
                        <g id="🔶-Icon" transform="translate(13.000000, 13.000000)">
                            <path d="M11,0.916666667 C13.2825,0.916666667 15.125,2.75916667 15.125,5.04166667 C15.125,7.32416667 13.2825,9.16666667 11,9.16666667 C8.7175,9.16666667 6.875,7.32416667 6.875,5.04166667 C6.875,2.75916667 8.7175,0.916666667 11,0.916666667 L11,0.916666667 Z M11,20.4416667 C7.5625,20.4416667 4.52375,18.6816667 2.75,16.0141667 C2.79125,13.2779167 8.25,11.7791667 11,11.7791667 C13.73625,11.7791667 19.20875,13.2779167 19.25,16.0141667 C17.47625,18.6816667 14.4375,20.4416667 11,20.4416667 L11,20.4416667 Z" id="🔹-Icon-Color"></path>
                        </g>
                    </g>
                </g>
            </g>
        </g>
    </g>
</svg>